<svg width="100" height="39" viewBox="0 0 100 39" fill="none" xmlns="http://www.w3.org/2000/svg">
<mask id="mask0_983_47" style="mask-type:luminance" maskUnits="userSpaceOnUse" x="0" y="0" width="100" height="39">
<path d="M100 0H0V38.5417H100V0Z" fill="white"/>
</mask>
<g mask="url(#mask0_983_47)">
<path d="M95.3395 36.9247H95.8731V37.4508H95.3395V36.9247ZM93.4958 37.4955C93.3064 37.4955 93.1447 37.4545 93.0111 37.374C92.8774 37.2924 92.7758 37.174 92.7058 37.0181C92.6358 36.8629 92.6011 36.6758 92.6011 36.4572V35.8947C92.6011 35.6749 92.6352 35.4869 92.7031 35.3316C92.7711 35.1757 92.8705 35.0573 93.0011 34.9757C93.1311 34.8953 93.2879 34.8543 93.4705 34.8543C93.6237 34.8543 93.7637 34.8937 93.8905 34.9727C94.0174 35.0516 94.12 35.1618 94.1985 35.3046L94.1459 35.8255C94.1459 35.718 94.1264 35.6251 94.0864 35.5477C94.0464 35.4714 93.9885 35.4126 93.9126 35.3721C93.8379 35.3316 93.7464 35.3119 93.6379 35.3119C93.4695 35.3119 93.34 35.3637 93.2474 35.4672C93.1553 35.5705 93.1095 35.7159 93.1095 35.9019V36.4577C93.1095 36.6431 93.1553 36.7859 93.2474 36.8878C93.34 36.9885 93.4695 37.039 93.6379 37.039C93.7459 37.039 93.8374 37.0181 93.9126 36.9756C93.9885 36.9335 94.0464 36.8732 94.0864 36.7953C94.1264 36.7164 94.1459 36.6224 94.1459 36.5123L94.1805 37.0504C94.1295 37.1771 94.0452 37.2831 93.9279 37.3677C93.8105 37.4529 93.6669 37.4955 93.4958 37.4955ZM94.1459 33.8751H94.6547V37.4514H94.1459V33.8751ZM90.8116 34.8983H91.9779V35.3508H90.8116V34.8983ZM91.6842 37.4639C91.4747 37.4639 91.3221 37.4067 91.2242 37.2924C91.1274 37.1781 91.079 37.0104 91.079 36.787V34.1556H91.5879V36.7922C91.5879 36.8546 91.6 36.9023 91.6242 36.9356C91.6495 36.9694 91.6864 36.9859 91.7337 36.9859H91.9779V37.4639H91.6842ZM88.39 36.9741H90.4637V37.4508H88.39V36.9741ZM88.1359 33.8751H88.6442V37.4514H88.1359V33.8751ZM84.9842 37.4882C84.8311 37.4882 84.6885 37.4732 84.5547 37.4435C84.42 37.414 84.2953 37.3698 84.1795 37.3111C84.0631 37.2524 83.9559 37.1781 83.8579 37.0894L84.159 36.7236C84.2985 36.8285 84.4369 36.9075 84.5759 36.9595C84.7137 37.0125 84.85 37.0384 84.9842 37.0384C85.1847 37.0384 85.3364 37.0073 85.4369 36.9459C85.5374 36.8847 85.5874 36.7922 85.5874 36.6692C85.5874 36.5876 85.56 36.5257 85.5047 36.4852C85.4505 36.4442 85.3821 36.4161 85.3005 36.4021C85.219 36.3886 85.1047 36.3761 84.9569 36.3642C84.9431 36.3642 84.9295 36.3642 84.9142 36.3631C84.899 36.3622 84.8853 36.3606 84.8716 36.3591C84.8647 36.3591 84.859 36.3591 84.8521 36.358C84.8452 36.357 84.8385 36.3565 84.8316 36.3565C84.6642 36.344 84.5216 36.3196 84.4052 36.2843C84.2895 36.2489 84.1926 36.1824 84.1152 36.0863C84.0379 35.9897 83.9995 35.8516 83.9995 35.6707C83.9995 35.49 84.0369 35.3399 84.1116 35.2209C84.1859 35.1009 84.2969 35.0111 84.4452 34.9513C84.5931 34.8922 84.7785 34.8615 85.0016 34.8615C85.1359 34.8615 85.2642 34.874 85.3864 34.8983C85.5085 34.9228 85.6252 34.9597 85.7369 35.0075C85.8485 35.0557 85.9552 35.1176 86.0585 35.1913L85.7516 35.5575C85.6221 35.475 85.4947 35.4142 85.3695 35.3731C85.2437 35.3331 85.1211 35.3119 85.0021 35.3119C84.8285 35.3119 84.699 35.3415 84.6126 35.3991C84.5269 35.4573 84.4831 35.5446 84.4831 35.6609C84.4831 35.7295 84.5079 35.782 84.5574 35.8162C84.6059 35.8505 84.6679 35.8733 84.7426 35.8853C84.8174 35.8962 84.9237 35.906 85.0616 35.9149C85.0721 35.9165 85.0821 35.9175 85.0921 35.9175C85.1031 35.9175 85.1142 35.9185 85.1264 35.9201C85.1311 35.9201 85.1364 35.9201 85.1416 35.9201C85.1459 35.9201 85.1511 35.9211 85.1559 35.9227C85.3369 35.9336 85.4911 35.958 85.6185 35.9939C85.7452 36.0302 85.8521 36.1014 85.9379 36.2079C86.0247 36.3144 86.0674 36.4681 86.0674 36.6697C86.0674 36.8535 86.0285 37.0052 85.9479 37.1262C85.8679 37.2462 85.7485 37.3371 85.5874 37.3984C85.4285 37.4581 85.2269 37.4882 84.9842 37.4882ZM82.3926 37.4882C82.1537 37.4882 81.949 37.4435 81.7795 37.3558C81.61 37.267 81.4811 37.1366 81.3921 36.9657C81.3031 36.7943 81.2585 36.5881 81.2585 36.3455V36.0577C81.2585 35.8053 81.3011 35.5893 81.3869 35.4105C81.4721 35.2319 81.5964 35.0957 81.7595 35.0028C81.9221 34.9098 82.119 34.8625 82.3474 34.8625C82.5631 34.8625 82.7479 34.916 82.9011 35.022C83.0531 35.1285 83.17 35.2828 83.2505 35.4843C83.3316 35.6858 83.3716 35.9284 83.3716 36.2104V36.3777H81.6279V35.9742H82.8885C82.8731 35.7658 82.819 35.6037 82.7253 35.489C82.6316 35.3731 82.5059 35.315 82.3474 35.315C82.1552 35.315 82.0052 35.3768 81.9 35.502C81.7947 35.6261 81.7416 35.8022 81.7416 36.0307V36.3549C81.7416 36.5662 81.7985 36.7294 81.9111 36.8416C82.0242 36.9548 82.1847 37.012 82.3926 37.012C82.4952 37.012 82.5979 36.9906 82.699 36.9501C82.8 36.9096 82.8911 36.852 82.9711 36.7777L83.3042 37.1075C83.1769 37.2285 83.0331 37.3226 82.8731 37.3885C82.7142 37.4545 82.5531 37.4882 82.3926 37.4882ZM79.8352 37.4882C79.6 37.4882 79.3979 37.4446 79.2316 37.3584C79.0647 37.2711 78.9374 37.1449 78.849 36.9786C78.7616 36.8135 78.7174 36.6135 78.7174 36.3793V35.9591C78.7174 35.7274 78.7616 35.53 78.849 35.3663C78.9374 35.2018 79.0652 35.0766 79.2316 34.9914C79.3985 34.9046 79.6 34.862 79.8352 34.862C79.9705 34.862 80.0964 34.8781 80.2152 34.9098C80.3347 34.9415 80.4411 34.9877 80.5359 35.0491C80.63 35.1098 80.7095 35.1835 80.7721 35.2698L80.4052 35.5949C80.3321 35.5124 80.2474 35.4495 80.1485 35.4053C80.0505 35.3617 79.9485 35.3389 79.8421 35.3389C79.6464 35.3389 79.4942 35.3934 79.3864 35.502C79.2785 35.61 79.2247 35.7622 79.2247 35.9596V36.3798C79.2247 36.5813 79.2785 36.7367 79.3859 36.8462C79.4921 36.9563 79.6452 37.0115 79.8426 37.0115C79.9505 37.0115 80.0537 36.987 80.1516 36.9402C80.2505 36.8925 80.3347 36.8254 80.4059 36.7377L80.7726 37.0868C80.7079 37.1724 80.6279 37.2447 80.5337 37.3049C80.4385 37.3646 80.3321 37.4098 80.2131 37.441C80.0947 37.4722 79.969 37.4882 79.8352 37.4882ZM77.5111 34.8983H78.019V37.4514H77.5111V34.8983ZM77.5111 33.8751H78.019V34.3769H77.5111V33.8751ZM76.4816 34.8983H77.0126L76.0405 37.4514H75.6569L74.6852 34.8983H75.2164L75.849 36.721L76.4816 34.8983ZM74.2037 35.5035C74.1585 35.449 74.1016 35.4079 74.0337 35.3804C73.9659 35.3524 73.8874 35.3383 73.7974 35.3383C73.6364 35.3383 73.5116 35.383 73.4221 35.4703C73.3337 35.558 73.2885 35.6801 73.2885 35.8354L73.2364 35.3435C73.3164 35.1913 73.4195 35.0724 73.5452 34.9882C73.6721 34.9035 73.8116 34.8615 73.9637 34.8615C74.0821 34.8615 74.189 34.8781 74.2842 34.9119C74.3795 34.9456 74.4626 34.995 74.5342 35.0604L74.2037 35.5035ZM72.7805 34.8983H73.2885V37.4514H72.7805V34.8983ZM71.1031 37.4882C70.8642 37.4882 70.6595 37.4435 70.49 37.3558C70.3205 37.267 70.1916 37.1366 70.1026 36.9657C70.0137 36.7943 69.969 36.5881 69.969 36.3455V36.0577C69.969 35.8053 70.0116 35.5893 70.0974 35.4105C70.1826 35.2319 70.3069 35.0957 70.47 35.0028C70.6326 34.9098 70.829 34.8625 71.0579 34.8625C71.2742 34.8625 71.4585 34.916 71.6116 35.022C71.7637 35.1285 71.8805 35.2828 71.9611 35.4843C72.0421 35.6858 72.0821 35.9284 72.0821 36.2104V36.3777H70.3385V35.9742H71.599C71.5837 35.7658 71.5295 35.6037 71.4359 35.489C71.3421 35.3731 71.2164 35.315 71.0579 35.315C70.8659 35.315 70.7164 35.3768 70.6105 35.502C70.5052 35.6261 70.4526 35.8022 70.4526 36.0307V36.3549C70.4526 36.5662 70.5095 36.7294 70.6221 36.8416C70.7352 36.9548 70.8959 37.012 71.1031 37.012C71.2059 37.012 71.3085 36.9906 71.4095 36.9501C71.5105 36.9096 71.6016 36.852 71.6816 36.7777L72.0147 37.1075C71.8874 37.2285 71.7437 37.3226 71.5837 37.3885C71.4247 37.4545 71.2642 37.4882 71.1031 37.4882ZM68.0411 37.4882C67.8669 37.4882 67.7011 37.4717 67.5452 37.439C67.389 37.4061 67.2431 37.3574 67.1074 37.2919C66.9721 37.2254 66.8452 37.1444 66.7279 37.0462L67.0442 36.6624C67.1821 36.7803 67.3342 36.8691 67.5 36.9278C67.6659 36.9865 67.8464 37.0161 68.0411 37.0161C68.3031 37.0161 68.5064 36.9683 68.6511 36.8727C68.7952 36.7772 68.8679 36.641 68.8679 36.4655V36.4629C68.8679 36.3387 68.8359 36.2396 68.77 36.1669C68.7037 36.0935 68.6195 36.0401 68.5159 36.0048C68.4121 35.9695 68.2774 35.9368 68.1137 35.9071C68.1085 35.9055 68.1026 35.9045 68.0974 35.9045C68.0911 35.9045 68.0853 35.9034 68.0805 35.9019L68.0437 35.8952C67.8005 35.8542 67.6031 35.8074 67.4516 35.7559C67.2995 35.7041 67.169 35.61 67.0611 35.4729C66.9531 35.3362 66.8995 35.1415 66.8995 34.8885V34.8859C66.8995 34.6652 66.9495 34.476 67.05 34.3193C67.1505 34.1634 67.2974 34.0429 67.49 33.9619C67.6831 33.8798 67.9142 33.8387 68.1859 33.8387C68.3153 33.8387 68.4426 33.8528 68.5679 33.8808C68.6937 33.9083 68.8169 33.9504 68.9395 34.005C69.0611 34.0595 69.1811 34.1291 69.2995 34.2132L69.01 34.6111C68.8721 34.5115 68.7352 34.4366 68.5974 34.3862C68.4605 34.3369 68.3231 34.3115 68.1859 34.3115C67.9385 34.3115 67.7453 34.3602 67.6085 34.4574C67.4716 34.555 67.4037 34.6932 67.4037 34.8724V34.875C67.4037 34.9976 67.4385 35.0942 67.509 35.1644C67.5795 35.235 67.6679 35.2869 67.7737 35.3207C67.879 35.354 68.0253 35.3893 68.2137 35.4256C68.2205 35.4272 68.2264 35.4282 68.2321 35.4287C68.2379 35.4298 68.2442 35.4313 68.2511 35.4329C68.2595 35.4345 68.2679 35.436 68.2779 35.4375C68.2879 35.4385 68.2969 35.4401 68.3053 35.4417C68.5247 35.4863 68.7074 35.5394 68.8547 35.5996C69.0016 35.6599 69.1252 35.758 69.2237 35.8931C69.3226 36.0281 69.3716 36.213 69.3716 36.4478V36.452C69.3716 36.6702 69.3195 36.8567 69.2147 37.012C69.1095 37.1673 68.9579 37.2847 68.7595 37.3661C68.5605 37.4477 68.3216 37.4882 68.0411 37.4882ZM63.6005 37.4955C63.4111 37.4955 63.2495 37.4545 63.1159 37.374C62.9821 37.2924 62.8805 37.174 62.8105 37.0181C62.7405 36.8629 62.7059 36.6758 62.7059 36.4572V35.8947C62.7059 35.6749 62.7395 35.4869 62.8079 35.3316C62.8759 35.1757 62.9752 35.0573 63.1059 34.9757C63.2359 34.8953 63.3926 34.8543 63.5753 34.8543C63.7285 34.8543 63.8685 34.8937 63.9953 34.9727C64.1221 35.0516 64.2247 35.1618 64.3031 35.3046L64.2505 35.8255C64.2505 35.718 64.2311 35.6251 64.1911 35.5477C64.1511 35.4714 64.0931 35.4126 64.0174 35.3721C63.9426 35.3316 63.8505 35.3119 63.7426 35.3119C63.5742 35.3119 63.4447 35.3637 63.3521 35.4672C63.26 35.5705 63.2142 35.7159 63.2142 35.9019V36.4577C63.2142 36.6431 63.26 36.7859 63.3521 36.8878C63.4447 36.9885 63.5742 37.039 63.7426 37.039C63.8505 37.039 63.9421 37.0181 64.0174 36.9756C64.0931 36.9335 64.1511 36.8732 64.1911 36.7953C64.2311 36.7164 64.2505 36.6224 64.2505 36.5123L64.2853 37.0504C64.2342 37.1771 64.15 37.2831 64.0326 37.3677C63.9159 37.4529 63.7716 37.4955 63.6005 37.4955ZM63.6474 38.4886C63.4537 38.4886 63.279 38.4533 63.1259 38.3822C62.9721 38.311 62.8526 38.2103 62.7679 38.0809L63.1116 37.7734C63.1785 37.8633 63.2579 37.9329 63.35 37.9827C63.4426 38.0316 63.539 38.0566 63.64 38.0566C63.8347 38.0566 63.9852 38.0035 64.0916 37.8981C64.1979 37.7921 64.2505 37.6425 64.2505 37.4487V34.8983H64.7595V37.375C64.7595 37.6093 64.7164 37.8108 64.6285 37.9776C64.5416 38.1448 64.4152 38.2721 64.2485 38.3589C64.0826 38.446 63.8826 38.4886 63.6474 38.4886ZM61.5 35.904C61.5 35.7232 61.4526 35.5841 61.3574 35.4858C61.2631 35.3877 61.13 35.3378 60.9595 35.3378C60.7931 35.3378 60.6653 35.3815 60.5742 35.4687C60.4842 35.5549 60.4385 35.6775 60.4385 35.8349L60.3864 35.343C60.4664 35.1893 60.57 35.0703 60.699 34.9861C60.8274 34.903 60.9695 34.8609 61.1264 34.8609C61.4069 34.8609 61.6237 34.9519 61.7779 35.1326C61.9321 35.314 62.0085 35.57 62.0085 35.9008V37.4503H61.5005L61.5 35.904ZM59.93 34.8983H60.4379V37.4514H59.93V34.8983ZM58.649 34.8983H59.1569V37.4514H58.649V34.8983ZM58.649 33.8751H59.1569V34.3769H58.649V33.8751ZM56.9169 37.4882C56.7637 37.4882 56.6205 37.4732 56.4874 37.4435C56.3531 37.414 56.2279 37.3698 56.1121 37.3111C55.9959 37.2524 55.8885 37.1781 55.7905 37.0894L56.0916 36.7236C56.2311 36.8285 56.3695 36.9075 56.5085 36.9595C56.6464 37.0125 56.7826 37.0384 56.9169 37.0384C57.1174 37.0384 57.269 37.0073 57.3695 36.9459C57.47 36.8847 57.52 36.7922 57.52 36.6692C57.52 36.5876 57.4926 36.5257 57.4374 36.4852C57.3831 36.4442 57.3147 36.4161 57.2331 36.4021C57.1516 36.3886 57.0379 36.3761 56.8895 36.3642C56.8759 36.3642 56.8621 36.3642 56.8469 36.3631C56.8316 36.3622 56.8179 36.3606 56.8042 36.3591C56.7974 36.3591 56.7916 36.3591 56.7847 36.358C56.7779 36.357 56.7711 36.3565 56.7642 36.3565C56.5969 36.344 56.4542 36.3196 56.3379 36.2843C56.2221 36.2489 56.1253 36.1824 56.0479 36.0863C55.9705 35.9897 55.9321 35.8516 55.9321 35.6707C55.9321 35.49 55.9695 35.3399 56.0442 35.2209C56.1185 35.1009 56.2295 35.0111 56.3779 34.9513C56.5259 34.8922 56.7111 34.8615 56.9342 34.8615C57.0685 34.8615 57.1969 34.874 57.319 34.8983C57.4411 34.9228 57.5579 34.9597 57.6695 35.0075C57.7811 35.0557 57.8879 35.1176 57.9911 35.1913L57.6837 35.5575C57.5542 35.475 57.4269 35.4142 57.3016 35.3731C57.1759 35.3331 57.0531 35.3119 56.9342 35.3119C56.7605 35.3119 56.6311 35.3415 56.5442 35.3991C56.4585 35.4573 56.4147 35.5446 56.4147 35.6609C56.4147 35.7295 56.4395 35.782 56.489 35.8162C56.5374 35.8505 56.5995 35.8733 56.6742 35.8853C56.749 35.8962 56.8559 35.906 56.9931 35.9149C57.0037 35.9165 57.0137 35.9175 57.0237 35.9175C57.0347 35.9175 57.0459 35.9185 57.0579 35.9201C57.0626 35.9201 57.0679 35.9201 57.0731 35.9201C57.0774 35.9201 57.0826 35.9211 57.0879 35.9227C57.269 35.9336 57.4231 35.958 57.5505 35.9939C57.6774 36.0302 57.7842 36.1014 57.8705 36.2079C57.9574 36.3144 58 36.4681 58 36.6697C58 36.8535 57.9611 37.0052 57.8805 37.1262C57.8005 37.2462 57.6811 37.3371 57.52 37.3984C57.3611 37.4581 57.1595 37.4882 56.9169 37.4882ZM54.7216 34.8983H55.2295V37.4514H54.7216V34.8983ZM54.7216 33.8751H55.2295V34.3769H54.7216V33.8751ZM52.8569 34.8983H54.0231V35.3508H52.8569V34.8983ZM53.7295 37.4639C53.52 37.4639 53.3669 37.4067 53.2695 37.2924C53.1726 37.1781 53.1242 37.0104 53.1242 36.787V34.1556H53.6326V36.7922C53.6326 36.8546 53.6447 36.9023 53.6695 36.9356C53.6947 36.9694 53.7316 36.9859 53.779 36.9859H54.0231V37.4639H53.7295ZM52.3016 35.5035C52.2564 35.449 52.1995 35.4079 52.1316 35.3804C52.0637 35.3524 51.9852 35.3383 51.8952 35.3383C51.7342 35.3383 51.6095 35.383 51.52 35.4703C51.4316 35.558 51.3864 35.6801 51.3864 35.8354L51.3342 35.3435C51.4142 35.1913 51.5174 35.0724 51.6431 34.9882C51.77 34.9035 51.9095 34.8615 52.0616 34.8615C52.18 34.8615 52.2869 34.8781 52.3821 34.9119C52.4774 34.9456 52.5605 34.995 52.6321 35.0604L52.3016 35.5035ZM50.8785 34.8983H51.3864V37.4514H50.8785V34.8983ZM49.2011 37.4882C48.9621 37.4882 48.7574 37.4435 48.5879 37.3558C48.4185 37.267 48.2895 37.1366 48.2005 36.9657C48.1111 36.7943 48.0669 36.5881 48.0669 36.3455V36.0577C48.0669 35.8053 48.1095 35.5893 48.1952 35.4105C48.2805 35.2319 48.4047 35.0957 48.5679 35.0028C48.7305 34.9098 48.9269 34.8625 49.1559 34.8625C49.3716 34.8625 49.5564 34.916 49.7095 35.022C49.8616 35.1285 49.9785 35.2828 50.059 35.4843C50.14 35.6858 50.18 35.9284 50.18 36.2104V36.3777H48.4364V35.9742H49.6969C49.6816 35.7658 49.6274 35.6037 49.5337 35.489C49.44 35.3731 49.3142 35.315 49.1559 35.315C48.9637 35.315 48.8137 35.3768 48.7085 35.502C48.6031 35.6261 48.5505 35.8022 48.5505 36.0307V36.3549C48.5505 36.5662 48.6074 36.7294 48.72 36.8416C48.8331 36.9548 48.9937 37.012 49.2016 37.012C49.3042 37.012 49.4069 36.9906 49.5079 36.9501C49.609 36.9096 49.7 36.852 49.78 36.7777L50.1131 37.1075C49.9859 37.2285 49.8421 37.3226 49.6821 37.3885C49.5226 37.4545 49.3621 37.4882 49.2011 37.4882ZM47.1631 34.8983H47.6942L46.7221 37.4514H46.3385L45.3669 34.8983H45.8979L46.5305 36.721L47.1631 34.8983ZM43.7095 37.4955C43.52 37.4955 43.3585 37.4545 43.2247 37.374C43.0911 37.2924 42.9895 37.174 42.9195 37.0181C42.85 36.8629 42.8147 36.6758 42.8147 36.4572V35.8947C42.8147 35.6749 42.8485 35.4869 42.9169 35.3316C42.9847 35.1757 43.0842 35.0573 43.2147 34.9757C43.3447 34.8953 43.5016 34.8543 43.6842 34.8543C43.8374 34.8543 43.9774 34.8937 44.1042 34.9727C44.2311 35.0516 44.3342 35.1618 44.4121 35.3046L44.3595 35.8255C44.3595 35.718 44.34 35.6251 44.3 35.5477C44.2595 35.4714 44.2021 35.4126 44.1264 35.3721C44.0516 35.3316 43.9595 35.3119 43.8516 35.3119C43.6831 35.3119 43.5537 35.3637 43.4611 35.4672C43.369 35.5705 43.3231 35.7159 43.3231 35.9019V36.4577C43.3231 36.6431 43.369 36.7859 43.4611 36.8878C43.5537 36.9885 43.6831 37.039 43.8516 37.039C43.9595 37.039 44.0511 37.0181 44.1264 36.9756C44.2021 36.9335 44.26 36.8732 44.3 36.7953C44.34 36.7164 44.3595 36.6224 44.3595 36.5123L44.3942 37.0504C44.3431 37.1771 44.259 37.2831 44.1416 37.3677C44.0242 37.4529 43.8805 37.4955 43.7095 37.4955ZM44.3595 33.8751H44.8679V37.4514H44.3595V33.8751ZM39.9016 36.1897H41.8079V36.6666H39.9016V36.1897ZM40.6221 33.8751H41.0552L42.3916 37.4514H41.8431L40.8385 34.5665L39.8347 37.4514H39.2864L40.6221 33.8751Z" fill="black"/>
<path fill-rule="evenodd" clip-rule="evenodd" d="M38.7621 38.4622C28.3169 29.5867 24.5316 12.8824 22.6126 0.015625C21.7495 2.01594 20.8979 4.01679 20.0111 6.00673C17.9995 10.5418 15.9547 14.5327 13.069 18.6969C10.0705 17.9983 6.93161 18.5842 5.21318 20.4588C7.37792 19.6693 9.72687 19.5228 12.0347 20.05C8.91213 23.8745 5.21423 26.9013 0.861078 29.2782C-0.716817 30.4459 0.038972 32.3678 1.79844 32.5631C2.86687 32.5631 3.52371 32.1756 4.35371 31.5449C7.9695 28.4565 11.2421 24.5977 13.8464 20.6266C19.2847 23.2024 21.7337 25.9477 25.2847 30.6433C29.2159 35.7903 31.6174 39.0273 38.7621 38.4622Z" fill="white"/>
<path fill-rule="evenodd" clip-rule="evenodd" d="M20.3074 9.23145C20.5336 14.3151 21.3515 19.1993 24.2315 26.4075C22.3984 24.1386 18.8189 20.8703 14.791 19.2788C16.9279 16.3746 19.0474 12.0415 20.3074 9.23145Z" fill="#E3000F"/>
<path fill-rule="evenodd" clip-rule="evenodd" d="M57.731 4.37256L57.8947 4.39541H58.0589L58.2231 4.41827L58.3874 4.44164L58.551 4.48787L58.7152 4.5341L58.8563 4.58033L59.02 4.62656L59.1605 4.69616L59.301 4.76525L59.4421 4.85823L59.5826 4.92731L59.7236 5.01977L59.8405 5.1356L59.9579 5.22806L60.0753 5.32104L60.1921 5.43635L60.2863 5.55166L60.38 5.69087L60.4736 5.8067L60.5674 5.94539L60.661 6.08408L60.7079 6.22329L60.7784 6.36198L60.8484 6.50066L60.8952 6.66273L60.9426 6.80141L60.9895 6.96348L61.0126 7.12554L61.0363 7.28708V7.44966L61.0595 7.6112L61.0363 7.77327V7.93533L61.0126 8.09739L60.9895 8.25893L60.9426 8.421L60.8952 8.58306L60.8484 8.72175L60.7784 8.86095L60.7079 9.0225L60.661 9.1617L60.5674 9.27702L60.4736 9.4157L60.38 9.55491L60.2863 9.67022L60.1921 9.78606L60.0753 9.90189L59.9579 9.99435L59.8405 10.1102L59.7236 10.2026L59.5826 10.2951L59.4421 10.3647L59.301 10.4572L59.1605 10.5262L59.02 10.5958L58.8563 10.6421L58.7152 10.7117L58.551 10.7346L58.3874 10.7812L58.2231 10.8042L58.0589 10.8275L57.8947 10.8504H57.731H57.5431L57.3795 10.8275L57.2147 10.8042L57.051 10.7812L56.8869 10.7346L56.7226 10.7117L56.5589 10.6421L56.4179 10.5958L56.2769 10.5262L56.1369 10.4572L55.9958 10.3647L55.8552 10.2951L55.7147 10.2026L55.5974 10.1102L55.4805 9.99435L55.3631 9.90189L55.2458 9.78606L55.1521 9.67022L55.0347 9.55491L54.941 9.4157L54.8705 9.27702L54.7769 9.1617L54.7069 9.0225L54.6363 8.86095L54.5895 8.72175L54.5189 8.58306L54.4958 8.421L54.4484 8.25893L54.4252 8.09739L54.4021 7.93533L54.3784 7.77327V7.6112V7.44966L54.4021 7.28708L54.4252 7.12554L54.4484 6.96348L54.4958 6.80141L54.5189 6.66273L54.5895 6.50066L54.6363 6.36198L54.7069 6.22329L54.7769 6.08408L54.8705 5.94539L54.941 5.8067L55.0347 5.69087L55.1521 5.55166L55.2458 5.43635L55.3631 5.32104L55.4805 5.22806L55.5974 5.1356L55.7147 5.01977L55.8552 4.92731L55.9958 4.85823L56.1369 4.76525L56.2769 4.69616L56.4179 4.62656L56.5589 4.58033L56.7226 4.5341L56.8869 4.48787L57.051 4.44164L57.2147 4.41827L57.3795 4.39541H57.5431L57.731 4.37256Z" fill="#D40E14"/>
<path fill-rule="evenodd" clip-rule="evenodd" d="M38.7421 17.3168C39.3342 17.3168 39.4806 18.9467 39.4853 19.3166C39.4911 19.7524 39.4095 21.4302 38.6953 21.4302C38.0306 21.4302 37.8811 19.81 37.8821 19.3311C37.8837 18.8382 37.969 17.3168 38.7421 17.3168ZM38.5332 23.4943C35.7385 25.3368 30.88 23.4819 30.578 19.7664C30.4637 18.366 31.0032 16.9293 32.2016 15.8223C35.5 13.1302 38.459 15.5362 39.1411 15.2017L39.2111 15.1788L39.2347 15.1331L39.2816 15.0869L39.3053 15.0412L39.3285 14.9955L39.3516 14.9264V14.8579L39.3753 14.7887V14.6968L39.3985 14.6048V14.5129V14.0994L39.3753 13.5707V8.69894C39.3753 7.7089 39.4227 7.04559 38.508 6.44668C39.4816 3.58048 46.0564 3.47555 46.0564 7.45802V16.9864C46.0564 17.936 45.9069 20.0277 46.4127 20.8759C47.278 22.3267 46.6437 23.9463 44.7985 24.2107C42.75 24.5036 40.3974 22.2659 38.5332 23.4943Z" fill="white"/>
<path fill-rule="evenodd" clip-rule="evenodd" d="M54.0036 17.3074C54.9694 17.3074 55.1346 18.3359 55.1526 19.0781V24.2366L61.1068 24.1898V17.3074C60.6147 13.622 53.4479 14.5316 54.0036 17.3074Z" fill="white"/>
<path fill-rule="evenodd" clip-rule="evenodd" d="M79.9785 16.6483C84.4827 12.7552 85.1596 16.4395 88.0432 16.4395C88.9485 16.4395 89.7916 14.9877 92.3075 14.876C93.769 14.8111 95.7327 15.9055 95.8732 17.8274V24.1671H89.4496V20.1545C89.4496 18.9857 89.4364 18.4996 88.418 18.297C87.4648 18.3733 87.3864 19.3696 87.3864 20.1362V24.2128H80.658V18.5608C80.658 17.8736 80.4875 17.1506 79.9785 16.6483Z" fill="white"/>
<path fill-rule="evenodd" clip-rule="evenodd" d="M62.6543 16.6483C67.1586 12.7552 67.8354 16.4395 70.7191 16.4395C71.6243 16.4395 72.4675 14.9877 74.9833 14.876C76.4448 14.8111 78.4086 15.9055 78.5491 17.8274V24.1671H72.1253V20.1545C72.1253 18.9857 72.1122 18.4996 71.0938 18.297C70.1407 18.3733 70.0622 19.3696 70.0622 20.1362V24.2128H63.3343V18.5608C63.3338 17.8736 63.1633 17.1506 62.6543 16.6483Z" fill="white"/>
<path d="M99.297 11.3751C98.9917 11.0977 98.5701 10.9123 98.1243 10.9123C97.6791 10.9123 97.2575 11.0977 96.9522 11.3751C96.6711 11.6758 96.4832 12.0924 96.4832 12.5319C96.4832 12.9718 96.6711 13.3879 96.9522 13.6892C97.257 13.9666 97.6791 14.152 98.1243 14.152C98.5701 14.152 98.9917 13.9671 99.297 13.6892C99.578 13.3879 99.7659 12.9718 99.7659 12.5319C99.7659 12.0924 99.578 11.6758 99.297 11.3751ZM98.1243 10.7045C98.6401 10.7045 99.1091 10.8894 99.4375 11.2363C99.7891 11.5605 100 12.0233 100 12.5319C100 13.0409 99.7891 13.5037 99.4375 13.8278C99.1091 14.1748 98.6401 14.3831 98.1243 14.3831C97.6091 14.3831 97.1401 14.1748 96.8117 13.8278C96.4601 13.5037 96.2727 13.0409 96.2727 12.5319C96.2727 12.0233 96.4601 11.5605 96.8117 11.2363C97.1401 10.8894 97.6091 10.7045 98.1243 10.7045Z" fill="white"/>
<path fill-rule="evenodd" clip-rule="evenodd" d="M97.7568 11.8462V12.4238H98.2952C98.3147 12.4253 98.3368 12.4264 98.3594 12.4253C98.3825 12.4243 98.4068 12.4217 98.4315 12.417C98.4641 12.4118 98.4968 12.404 98.5284 12.3931C98.5594 12.3817 98.5863 12.365 98.6078 12.3443C98.6358 12.3167 98.6578 12.285 98.6736 12.2497C98.6889 12.2139 98.6973 12.1765 98.6973 12.1375C98.6973 12.0815 98.6842 12.0321 98.6573 11.9895C98.631 11.9474 98.5984 11.9163 98.5604 11.896C98.5242 11.8763 98.4858 11.8633 98.4463 11.856C98.4068 11.8498 98.3636 11.8462 98.3173 11.8462H97.7568ZM97.5215 13.406V11.653H98.3073C98.3563 11.6545 98.4052 11.6566 98.4525 11.6592C98.4999 11.6617 98.5463 11.6685 98.5925 11.6799C98.6042 11.6836 98.6158 11.6862 98.6273 11.6898C98.6389 11.693 98.6504 11.6971 98.662 11.7022C98.753 11.7366 98.822 11.7947 98.8694 11.8768C98.9163 11.9589 98.9399 12.0461 98.9399 12.1375C98.9399 12.2772 98.8947 12.3864 98.8047 12.4638C98.7147 12.5412 98.593 12.5899 98.4415 12.6092V12.6118C98.4858 12.6346 98.5358 12.6668 98.5899 12.7094C98.6447 12.752 98.7068 12.8263 98.7758 12.9317L99.0858 13.406H98.791L98.5578 13.0435C98.482 12.9282 98.4189 12.8409 98.3678 12.7842C98.3178 12.7266 98.2704 12.6876 98.2258 12.6663C98.1958 12.6518 98.1652 12.6424 98.1342 12.6398C98.1025 12.6362 98.0668 12.6346 98.0273 12.6346H97.7573V13.406H97.5215Z" fill="white"/>
<path fill-rule="evenodd" clip-rule="evenodd" d="M32.9827 28.3287H95.8727V29.5561C90.2796 29.5561 33.7222 29.5406 33.7122 29.5328C33.2559 29.1822 33.0927 28.7625 32.9754 28.3355C32.9748 28.3324 32.9785 28.3287 32.9827 28.3287Z" fill="#E3000F"/>
<path fill-rule="evenodd" clip-rule="evenodd" d="M32.9827 28.3287H95.8727V29.5561C90.2796 29.5561 33.7222 29.5406 33.7122 29.5328C33.2559 29.1822 33.0927 28.7625 32.9754 28.3355C32.9748 28.3324 32.9785 28.3287 32.9827 28.3287Z" fill="#E3000F"/>
</g>
</svg>
