<svg width="125" height="47" viewBox="0 0 125 47" fill="none" xmlns="http://www.w3.org/2000/svg">
<g clip-path="url(#clip0_549_3294)">
<mask id="mask0_549_3294" style="mask-type:luminance" maskUnits="userSpaceOnUse" x="0" y="0" width="125" height="47">
<path d="M125 0H0V47H125V0Z" fill="white"/>
</mask>
<g mask="url(#mask0_549_3294)">
<path d="M119.174 45.0288H119.841V45.6704H119.174V45.0288ZM116.869 45.7249C116.632 45.7249 116.43 45.6749 116.263 45.5767C116.096 45.4772 115.969 45.3328 115.882 45.1427C115.794 44.9535 115.751 44.7253 115.751 44.4587V43.7728C115.751 43.5047 115.793 43.2754 115.878 43.0861C115.963 42.896 116.088 42.7516 116.251 42.6521C116.413 42.5541 116.609 42.504 116.838 42.504C117.029 42.504 117.204 42.5522 117.363 42.6484C117.521 42.7446 117.649 42.879 117.748 43.0531L117.682 43.6884C117.682 43.5573 117.657 43.444 117.607 43.3496C117.557 43.2565 117.485 43.1849 117.39 43.1355C117.297 43.086 117.182 43.062 117.047 43.062C116.836 43.062 116.674 43.1253 116.559 43.2514C116.444 43.3775 116.386 43.5548 116.386 43.7815V44.4593C116.386 44.6854 116.444 44.8596 116.559 44.9838C116.674 45.1067 116.836 45.1682 117.047 45.1682C117.182 45.1682 117.296 45.1427 117.39 45.0909C117.485 45.0396 117.557 44.9661 117.607 44.871C117.657 44.7748 117.682 44.6602 117.682 44.5259L117.725 45.1821C117.661 45.3366 117.556 45.4659 117.409 45.569C117.263 45.673 117.083 45.7249 116.869 45.7249ZM117.682 41.31H118.318V45.6711H117.682V41.31ZM113.514 42.5577H114.972V43.1095H113.514V42.5577ZM114.605 45.6863C114.343 45.6863 114.152 45.6166 114.03 45.4772C113.909 45.3379 113.848 45.1333 113.848 44.8609V41.652H114.484V44.8672C114.484 44.9433 114.499 45.0015 114.53 45.0421C114.561 45.0833 114.607 45.1035 114.667 45.1035H114.972V45.6863H114.605ZM110.487 45.089H113.079V45.6704H110.487V45.089ZM110.169 41.31H110.805V45.6711H110.169V41.31ZM106.23 45.716C106.038 45.716 105.86 45.6977 105.693 45.6615C105.524 45.6254 105.369 45.5716 105.224 45.5001C105.078 45.4284 104.944 45.3379 104.822 45.2296L105.198 44.7836C105.373 44.9116 105.546 45.0078 105.719 45.0712C105.892 45.1359 106.062 45.1675 106.23 45.1675C106.48 45.1675 106.67 45.1295 106.796 45.0547C106.921 44.98 106.984 44.8672 106.984 44.7172C106.984 44.6177 106.949 44.5423 106.88 44.4929C106.813 44.4428 106.727 44.4087 106.625 44.3915C106.523 44.3751 106.38 44.3599 106.196 44.3453C106.178 44.3453 106.161 44.3453 106.142 44.344C106.123 44.3429 106.106 44.341 106.089 44.339C106.08 44.339 106.073 44.339 106.065 44.3378C106.056 44.3365 106.048 44.3359 106.039 44.3359C105.83 44.3206 105.651 44.2909 105.506 44.2478C105.361 44.2047 105.24 44.1236 105.143 44.0065C105.047 43.8886 104.999 43.7202 104.999 43.4997C104.999 43.2793 105.046 43.0962 105.139 42.9511C105.232 42.8048 105.371 42.6953 105.556 42.6224C105.741 42.5502 105.973 42.5128 106.251 42.5128C106.419 42.5128 106.58 42.528 106.732 42.5577C106.885 42.5876 107.031 42.6326 107.171 42.6909C107.31 42.7497 107.443 42.8251 107.573 42.9151L107.189 43.3616C107.027 43.261 106.868 43.1868 106.711 43.1367C106.554 43.088 106.401 43.062 106.252 43.062C106.035 43.062 105.873 43.0981 105.765 43.1684C105.658 43.2394 105.603 43.3458 105.603 43.4877C105.603 43.5713 105.634 43.6353 105.696 43.6771C105.757 43.7189 105.834 43.7467 105.928 43.7613C106.021 43.7747 106.154 43.7866 106.326 43.7974C106.34 43.7993 106.352 43.8006 106.365 43.8006C106.378 43.8006 106.392 43.8018 106.407 43.8038C106.413 43.8038 106.42 43.8038 106.426 43.8038C106.432 43.8038 106.438 43.805 106.444 43.8069C106.671 43.8203 106.863 43.85 107.023 43.8937C107.181 43.938 107.315 44.0248 107.422 44.1547C107.53 44.2846 107.584 44.472 107.584 44.7178C107.584 44.942 107.535 45.127 107.434 45.2746C107.334 45.4209 107.185 45.5317 106.984 45.6065C106.785 45.6793 106.533 45.716 106.23 45.716ZM102.99 45.716C102.692 45.716 102.436 45.6615 102.224 45.5546C102.012 45.4462 101.851 45.2872 101.74 45.0788C101.628 44.8698 101.573 44.6184 101.573 44.3225V43.9716C101.573 43.6638 101.626 43.4003 101.733 43.1823C101.84 42.9645 101.995 42.7985 102.199 42.6852C102.402 42.5717 102.648 42.514 102.934 42.514C103.203 42.514 103.434 42.5793 103.626 42.7085C103.816 42.8385 103.962 43.0266 104.063 43.2723C104.164 43.5181 104.214 43.8139 104.214 44.1578V44.3618H102.034V43.8697H103.61C103.591 43.6156 103.523 43.418 103.406 43.278C103.289 43.1367 103.132 43.0659 102.934 43.0659C102.693 43.0659 102.506 43.1412 102.374 43.2939C102.243 43.4453 102.176 43.66 102.176 43.9387V44.334C102.176 44.5917 102.248 44.7906 102.388 44.9274C102.53 45.0655 102.73 45.1353 102.99 45.1353C103.118 45.1353 103.247 45.1092 103.373 45.0598C103.499 45.0104 103.613 44.9401 103.713 44.8496L104.13 45.2517C103.971 45.3993 103.791 45.514 103.591 45.5945C103.392 45.6749 103.191 45.716 102.99 45.716ZM99.7935 45.716C99.4995 45.716 99.2469 45.6628 99.0389 45.5577C98.8303 45.4513 98.6712 45.2973 98.5607 45.0946C98.4514 44.8933 98.3962 44.6494 98.3962 44.3637V43.8513C98.3962 43.5688 98.4514 43.328 98.5607 43.1285C98.6712 42.9278 98.831 42.7751 99.0389 42.6712C99.2475 42.5654 99.4995 42.5134 99.7935 42.5134C99.9626 42.5134 100.12 42.5331 100.268 42.5717C100.418 42.6103 100.551 42.6667 100.669 42.7416C100.787 42.8156 100.886 42.9055 100.965 43.0107L100.506 43.4072C100.415 43.3066 100.309 43.2298 100.185 43.176C100.063 43.1228 99.935 43.0949 99.8021 43.0949C99.5574 43.0949 99.3672 43.1615 99.2324 43.2939C99.0975 43.4256 99.0303 43.6112 99.0303 43.8519V44.3643C99.0303 44.6101 99.0975 44.7995 99.2318 44.9331C99.3646 45.0674 99.556 45.1346 99.8027 45.1346C99.9376 45.1346 100.067 45.1048 100.189 45.0477C100.313 44.9896 100.418 44.9077 100.507 44.8008L100.965 45.2265C100.884 45.3309 100.784 45.419 100.667 45.4924C100.548 45.5652 100.415 45.6204 100.266 45.6585C100.118 45.6965 99.9607 45.716 99.7935 45.716ZM96.8883 42.5577H97.5232V45.6711H96.8883V42.5577ZM96.8883 41.31H97.5232V41.9218H96.8883V41.31ZM95.6014 42.5577H96.2652L95.0501 45.6711H94.5706L93.356 42.5577H94.0199L94.8107 44.7805L95.6014 42.5577ZM92.754 43.2958C92.6975 43.2292 92.6264 43.1792 92.5415 43.1456C92.4568 43.1115 92.3587 43.0943 92.2462 43.0943C92.0449 43.0943 91.8889 43.1488 91.7771 43.2552C91.6665 43.3622 91.61 43.5111 91.61 43.7005L91.5449 43.1007C91.6449 42.9151 91.7738 42.77 91.931 42.6674C92.0896 42.5641 92.2639 42.5128 92.454 42.5128C92.6021 42.5128 92.7357 42.5331 92.8547 42.5743C92.9738 42.6154 93.0777 42.6756 93.1672 42.7554L92.754 43.2958ZM90.9751 42.5577H91.61V45.6711H90.9751V42.5577ZM88.8784 45.716C88.5797 45.716 88.3238 45.6615 88.112 45.5546C87.9001 45.4462 87.7389 45.2872 87.6277 45.0788C87.5165 44.8698 87.4607 44.6184 87.4607 44.3225V43.9716C87.4607 43.6638 87.5139 43.4003 87.6212 43.1823C87.7277 42.9645 87.8831 42.7985 88.087 42.6852C88.2902 42.5717 88.5357 42.514 88.8219 42.514C89.0922 42.514 89.3225 42.5793 89.5139 42.7085C89.704 42.8385 89.8501 43.0266 89.9508 43.2723C90.0521 43.5181 90.1021 43.8139 90.1021 44.1578V44.3618H87.9225V43.8697H89.4982C89.479 43.6156 89.4113 43.418 89.2943 43.278C89.1771 43.1367 89.0199 43.0659 88.8219 43.0659C88.5818 43.0659 88.3949 43.1412 88.2626 43.2939C88.131 43.4453 88.0652 43.66 88.0652 43.9387V44.334C88.0652 44.5917 88.1363 44.7906 88.2771 44.9274C88.4185 45.0655 88.6193 45.1353 88.8784 45.1353C89.0068 45.1353 89.135 45.1092 89.2613 45.0598C89.3876 45.0104 89.5014 44.9401 89.6014 44.8496L90.0178 45.2517C89.8587 45.3993 89.679 45.514 89.479 45.5945C89.2803 45.6749 89.0797 45.716 88.8784 45.716ZM85.0508 45.716C84.8331 45.716 84.6258 45.6958 84.431 45.6559C84.2357 45.6159 84.0534 45.5565 83.8837 45.4766C83.7146 45.3955 83.556 45.2967 83.4094 45.177L83.8047 44.7089C83.9771 44.8527 84.1672 44.961 84.3745 45.0326C84.5818 45.1041 84.8074 45.1403 85.0508 45.1403C85.3784 45.1403 85.6324 45.082 85.8133 44.9654C85.9935 44.8489 86.0844 44.6829 86.0844 44.4689V44.4657C86.0844 44.3143 86.0443 44.1933 85.962 44.1047C85.879 44.0153 85.7738 43.9501 85.6443 43.907C85.5146 43.864 85.3462 43.8241 85.1415 43.7879C85.135 43.786 85.1277 43.7847 85.1212 43.7847C85.1133 43.7847 85.1061 43.7834 85.1001 43.7815L85.054 43.7734C84.7501 43.7233 84.5034 43.6663 84.3139 43.6036C84.1238 43.5403 83.9607 43.4256 83.8258 43.2584C83.6909 43.0918 83.6238 42.8542 83.6238 42.5458V42.5426C83.6238 42.2735 83.6863 42.0428 83.812 41.8516C83.9376 41.6616 84.1212 41.5146 84.362 41.4158C84.6034 41.3157 84.8922 41.2656 85.2318 41.2656C85.3936 41.2656 85.5527 41.2828 85.7094 41.3169C85.8665 41.3505 86.0206 41.4018 86.1738 41.4684C86.3258 41.5348 86.4758 41.6197 86.6238 41.7223L86.262 42.2075C86.0896 42.086 85.9185 41.9946 85.7462 41.9333C85.5751 41.8731 85.4034 41.8421 85.2318 41.8421C84.9225 41.8421 84.6811 41.9015 84.51 42.02C84.3389 42.1391 84.254 42.3076 84.254 42.5261V42.5293C84.254 42.6788 84.2975 42.7966 84.3857 42.8822C84.4738 42.9683 84.5844 43.0316 84.7165 43.0728C84.8482 43.1134 85.0311 43.1564 85.2665 43.2008C85.2751 43.2027 85.2824 43.2039 85.2896 43.2046C85.2969 43.2058 85.3047 43.2077 85.3133 43.2096C85.3238 43.2116 85.3344 43.2135 85.3469 43.2152C85.3594 43.2165 85.3706 43.2184 85.3811 43.2203C85.6553 43.2748 85.8837 43.3395 86.0678 43.4129C86.2514 43.4864 86.406 43.6061 86.529 43.7709C86.6527 43.9355 86.7139 44.161 86.7139 44.4473V44.4524C86.7139 44.7185 86.6488 44.9459 86.5178 45.1353C86.3863 45.3247 86.1969 45.4678 85.9488 45.5671C85.7001 45.6666 85.4014 45.716 85.0508 45.716ZM79.5001 45.7249C79.2633 45.7249 79.0613 45.6749 78.8943 45.5767C78.7271 45.4772 78.6001 45.3328 78.5126 45.1427C78.4251 44.9535 78.3818 44.7253 78.3818 44.4587V43.7728C78.3818 43.5047 78.4238 43.2754 78.5094 43.0861C78.5943 42.896 78.7185 42.7516 78.8818 42.6521C79.0443 42.5541 79.2402 42.504 79.4686 42.504C79.66 42.504 79.835 42.5522 79.9936 42.6484C80.1521 42.7446 80.2803 42.879 80.3784 43.0531L80.3126 43.6884C80.3126 43.5573 80.2883 43.444 80.2383 43.3496C80.1883 43.2565 80.1159 43.1849 80.0212 43.1355C79.9277 43.086 79.8126 43.062 79.6777 43.062C79.4672 43.062 79.3053 43.1253 79.1896 43.2514C79.0745 43.3775 79.0172 43.5548 79.0172 43.7815V44.4593C79.0172 44.6854 79.0745 44.8596 79.1896 44.9838C79.3053 45.1067 79.4672 45.1682 79.6777 45.1682C79.8126 45.1682 79.9271 45.1427 80.0212 45.0909C80.1159 45.0396 80.1883 44.9661 80.2383 44.871C80.2883 44.7748 80.3126 44.6602 80.3126 44.5259L80.3561 45.1821C80.2922 45.3366 80.187 45.4659 80.0402 45.569C79.8943 45.673 79.7139 45.7249 79.5001 45.7249ZM79.5587 46.936C79.3165 46.936 79.0982 46.8929 78.9068 46.8062C78.7146 46.7194 78.5652 46.5966 78.4594 46.4388L78.8889 46.0638C78.9725 46.1734 79.0719 46.2583 79.187 46.319C79.3027 46.3786 79.4232 46.4091 79.5495 46.4091C79.7928 46.4091 79.981 46.3444 80.1139 46.2159C80.2469 46.0866 80.3126 45.9041 80.3126 45.6679V42.5577H80.9488V45.5779C80.9488 45.8636 80.8949 46.1094 80.785 46.3128C80.6764 46.5167 80.5185 46.6719 80.31 46.7777C80.1027 46.884 79.8527 46.936 79.5587 46.936ZM76.8745 43.7841C76.8745 43.5637 76.8152 43.394 76.6962 43.2742C76.5784 43.1545 76.412 43.0937 76.1988 43.0937C75.9909 43.0937 75.8311 43.1469 75.7172 43.2533C75.6047 43.3584 75.5475 43.5079 75.5475 43.6998L75.4824 43.1C75.5824 42.9125 75.712 42.7675 75.8732 42.6648C76.0337 42.5635 76.2113 42.5121 76.4074 42.5121C76.7581 42.5121 77.029 42.623 77.2219 42.8434C77.4146 43.0646 77.51 43.3768 77.51 43.7803V45.6698H76.8751L76.8745 43.7841ZM74.912 42.5577H75.5469V45.6711H74.912V42.5577ZM73.3107 42.5577H73.9456V45.6711H73.3107V42.5577ZM73.3107 41.31H73.9456V41.9218H73.3107V41.31ZM71.1456 45.716C70.954 45.716 70.7751 45.6977 70.6087 45.6615C70.4409 45.6254 70.2844 45.5716 70.1396 45.5001C69.9943 45.4284 69.86 45.3379 69.7376 45.2296L70.1139 44.7836C70.2883 44.9116 70.4613 45.0078 70.635 45.0712C70.8074 45.1359 70.9777 45.1675 71.1456 45.1675C71.3962 45.1675 71.5857 45.1295 71.7113 45.0547C71.837 44.98 71.8995 44.8672 71.8995 44.7172C71.8995 44.6177 71.8652 44.5423 71.7962 44.4929C71.7284 44.4428 71.6428 44.4087 71.5409 44.3915C71.4389 44.3751 71.2969 44.3599 71.1113 44.3453C71.0943 44.3453 71.0771 44.3453 71.0581 44.344C71.0389 44.3429 71.0219 44.341 71.0047 44.339C70.9962 44.339 70.9889 44.339 70.9803 44.3378C70.9719 44.3365 70.9633 44.3359 70.9547 44.3359C70.7456 44.3206 70.5672 44.2909 70.4219 44.2478C70.2771 44.2047 70.1561 44.1236 70.0594 44.0065C69.9626 43.8886 69.9146 43.7202 69.9146 43.4997C69.9146 43.2793 69.9613 43.0962 70.0547 42.9511C70.1475 42.8048 70.2863 42.6953 70.4719 42.6224C70.6568 42.5502 70.8883 42.5128 71.1672 42.5128C71.335 42.5128 71.4956 42.528 71.6482 42.5577C71.8008 42.5876 71.9469 42.6326 72.0863 42.6909C72.2258 42.7497 72.3594 42.8251 72.4883 42.9151L72.104 43.3616C71.9422 43.261 71.7831 43.1868 71.6264 43.1367C71.4693 43.088 71.3159 43.062 71.1672 43.062C70.9501 43.062 70.7883 43.0981 70.6797 43.1684C70.5725 43.2394 70.5178 43.3458 70.5178 43.4877C70.5178 43.5713 70.5488 43.6353 70.6107 43.6771C70.6712 43.7189 70.7488 43.7467 70.8422 43.7613C70.9357 43.7747 71.0693 43.7866 71.2409 43.7974C71.254 43.7993 71.2665 43.8006 71.279 43.8006C71.2928 43.8006 71.3068 43.8018 71.3219 43.8038C71.3277 43.8038 71.3344 43.8038 71.3409 43.8038C71.3462 43.8038 71.3527 43.805 71.3594 43.8069C71.5857 43.8203 71.7784 43.85 71.9376 43.8937C72.0962 43.938 72.2297 44.0248 72.3376 44.1547C72.4462 44.2846 72.4995 44.472 72.4995 44.7178C72.4995 44.942 72.4508 45.127 72.3501 45.2746C72.2501 45.4209 72.1008 45.5317 71.8995 45.6065C71.7008 45.6793 71.4488 45.716 71.1456 45.716ZM68.4014 42.5577H69.0363V45.6711H68.4014V42.5577ZM68.4014 41.31H69.0363V41.9218H68.4014V41.31ZM66.0706 42.5577H67.5284V43.1095H66.0706V42.5577ZM67.1613 45.6863C66.8995 45.6863 66.7081 45.6166 66.5863 45.4772C66.4652 45.3379 66.4047 45.1333 66.4047 44.8609V41.652H67.0402V44.8672C67.0402 44.9433 67.0553 45.0015 67.0863 45.0421C67.1178 45.0833 67.1639 45.1035 67.2232 45.1035H67.5284V45.6863H67.1613ZM65.3764 43.2958C65.3199 43.2292 65.2488 43.1792 65.1639 43.1456C65.079 43.1115 64.981 43.0943 64.8685 43.0943C64.6672 43.0943 64.5113 43.1488 64.3995 43.2552C64.2889 43.3622 64.2324 43.5111 64.2324 43.7005L64.1672 43.1007C64.2672 42.9151 64.3962 42.77 64.5534 42.6674C64.712 42.5641 64.8863 42.5128 65.0764 42.5128C65.2245 42.5128 65.3581 42.5331 65.4771 42.5743C65.5962 42.6154 65.7001 42.6756 65.7896 42.7554L65.3764 43.2958ZM63.5975 42.5577H64.2324V45.6711H63.5975V42.5577ZM61.5008 45.716C61.2021 45.716 60.9462 45.6615 60.7344 45.5546C60.5225 45.4462 60.3613 45.2872 60.2501 45.0788C60.1383 44.8698 60.0831 44.6184 60.0831 44.3225V43.9716C60.0831 43.6638 60.1363 43.4003 60.2435 43.1823C60.3501 42.9645 60.5053 42.7985 60.7094 42.6852C60.9126 42.5717 61.1581 42.514 61.4443 42.514C61.7139 42.514 61.9449 42.5793 62.1363 42.7085C62.3264 42.8385 62.4725 43.0266 62.5732 43.2723C62.6745 43.5181 62.7245 43.8139 62.7245 44.1578V44.3618H60.5449V43.8697H62.1206C62.1014 43.6156 62.0337 43.418 61.9165 43.278C61.7995 43.1367 61.6422 43.0659 61.4443 43.0659C61.204 43.0659 61.0165 43.1412 60.885 43.2939C60.7534 43.4453 60.6876 43.66 60.6876 43.9387V44.334C60.6876 44.5917 60.7587 44.7906 60.8995 44.9274C61.0409 45.0655 61.2415 45.1353 61.5014 45.1353C61.6297 45.1353 61.7581 45.1092 61.8844 45.0598C62.0107 45.0104 62.1245 44.9401 62.2245 44.8496L62.6409 45.2517C62.4818 45.3993 62.3021 45.514 62.1021 45.5945C61.9027 45.6749 61.7021 45.716 61.5008 45.716ZM58.9534 42.5577H59.6172L58.4021 45.6711H57.9225L56.7081 42.5577H57.3719L58.1626 44.7805L58.9534 42.5577ZM54.6363 45.7249C54.3995 45.7249 54.1975 45.6749 54.0303 45.5767C53.8633 45.4772 53.7363 45.3328 53.6488 45.1427C53.562 44.9535 53.5178 44.7253 53.5178 44.4587V43.7728C53.5178 43.5047 53.56 43.2754 53.6456 43.0861C53.7303 42.896 53.8547 42.7516 54.0178 42.6521C54.1803 42.5541 54.3764 42.504 54.6047 42.504C54.7962 42.504 54.9712 42.5522 55.1297 42.6484C55.2883 42.7446 55.4172 42.879 55.5146 43.0531L55.4488 43.6884C55.4488 43.5573 55.4245 43.444 55.3745 43.3496C55.3238 43.2565 55.2521 43.1849 55.1574 43.1355C55.0639 43.086 54.9488 43.062 54.8139 43.062C54.6034 43.062 54.4415 43.1253 54.3258 43.2514C54.2107 43.3775 54.1534 43.5548 54.1534 43.7815V44.4593C54.1534 44.6854 54.2107 44.8596 54.3258 44.9838C54.4415 45.1067 54.6034 45.1682 54.8139 45.1682C54.9488 45.1682 55.0633 45.1427 55.1574 45.0909C55.2521 45.0396 55.3245 44.9661 55.3745 44.871C55.4245 44.7748 55.4488 44.6602 55.4488 44.5259L55.4922 45.1821C55.4284 45.3366 55.3232 45.4659 55.1764 45.569C55.0297 45.673 54.8501 45.7249 54.6363 45.7249ZM55.4488 41.31H56.0844V45.6711H55.4488V41.31ZM49.8764 44.1325H52.2594V44.714H49.8764V44.1325ZM50.7771 41.31H51.3185L52.9889 45.6711H52.3034L51.0475 42.153L49.7928 45.6711H49.1074L50.7771 41.31Z" fill="black"/>
<path fill-rule="evenodd" clip-rule="evenodd" d="M48.4523 46.9036C35.3958 36.0803 30.6642 15.7101 28.2655 0.0195312C27.1866 2.45884 26.1221 4.89879 25.0135 7.32543C22.4991 12.8558 19.9431 17.7225 16.3359 22.8006C12.5879 21.9486 8.66421 22.6632 6.51617 24.9492C9.2221 23.9864 12.1583 23.8077 15.0431 24.4507C11.1399 29.1145 6.51749 32.8055 1.07604 35.704C-0.896326 37.128 0.0484098 39.4716 2.24775 39.7098C3.58328 39.7098 4.40434 39.2373 5.44184 38.4683C9.96156 34.702 14.0523 29.9963 17.3077 25.1538C24.1056 28.2949 27.1668 31.6426 31.6056 37.3687C36.5195 43.6452 39.5215 47.5927 48.4523 46.9036Z" fill="black"/>
<path fill-rule="evenodd" clip-rule="evenodd" d="M25.3837 11.2578C25.6665 17.4571 26.6889 23.4132 30.2889 32.2033C27.9975 29.4365 23.5232 25.4509 18.4883 23.5102C21.1594 19.9687 23.8087 14.6846 25.3837 11.2578Z" fill="#E3000F"/>
<path fill-rule="evenodd" clip-rule="evenodd" d="M72.1634 5.33374L72.368 5.36161H72.5733L72.7785 5.38948L72.9839 5.41798L73.1884 5.47436L73.3936 5.53073L73.5701 5.58711L73.7746 5.64348L73.9503 5.72836L74.1259 5.81261L74.3022 5.92599L74.4779 6.01024L74.6542 6.12298L74.8003 6.26424L74.947 6.37699L75.0937 6.49037L75.2397 6.63099L75.3576 6.77161L75.4746 6.94137L75.5917 7.08262L75.7089 7.25175L75.8259 7.42087L75.8845 7.59063L75.9727 7.75975L76.0602 7.92888L76.1186 8.12651L76.1779 8.29563L76.2365 8.49326L76.2654 8.69089L76.295 8.88788V9.08614L76.324 9.28314L76.295 9.48077V9.67839L76.2654 9.87602L76.2365 10.073L76.1779 10.2706L76.1186 10.4683L76.0602 10.6374L75.9727 10.8072L75.8845 11.0042L75.8259 11.1739L75.7089 11.3145L75.5917 11.4837L75.4746 11.6534L75.3576 11.794L75.2397 11.9353L75.0937 12.0765L74.947 12.1893L74.8003 12.3305L74.6542 12.4433L74.4779 12.556L74.3022 12.6409L74.1259 12.7537L73.9503 12.8379L73.7746 12.9228L73.5701 12.9792L73.3936 13.064L73.1884 13.092L72.9839 13.1489L72.7785 13.1768L72.5733 13.2053L72.368 13.2332H72.1634H71.9285L71.724 13.2053L71.518 13.1768L71.3134 13.1489L71.1082 13.092L70.9029 13.064L70.6983 12.9792L70.522 12.9228L70.3457 12.8379L70.1707 12.7537L69.9944 12.6409L69.8186 12.556L69.643 12.4433L69.4964 12.3305L69.3503 12.1893L69.2035 12.0765L69.0569 11.9353L68.9397 11.794L68.793 11.6534L68.6759 11.4837L68.5878 11.3145L68.4707 11.1739L68.3832 11.0042L68.2951 10.8072L68.2365 10.6374L68.1483 10.4683L68.1194 10.2706L68.0602 10.073L68.0311 9.87602L68.0022 9.67839L67.9727 9.48077V9.28314V9.08614L68.0022 8.88788L68.0311 8.69089L68.0602 8.49326L68.1194 8.29563L68.1483 8.12651L68.2365 7.92888L68.2951 7.75975L68.3832 7.59063L68.4707 7.42087L68.5878 7.25175L68.6759 7.08262L68.793 6.94137L68.9397 6.77161L69.0569 6.63099L69.2035 6.49037L69.3503 6.37699L69.4964 6.26424L69.643 6.12298L69.8186 6.01024L69.9944 5.92599L70.1707 5.81261L70.3457 5.72836L70.522 5.64348L70.6983 5.58711L70.9029 5.53073L71.1082 5.47436L71.3134 5.41798L71.518 5.38948L71.724 5.36161H71.9285L72.1634 5.33374Z" fill="#D40E14"/>
<path fill-rule="evenodd" clip-rule="evenodd" d="M48.4271 21.1184C49.1672 21.1184 49.3501 23.106 49.356 23.5571C49.3633 24.0886 49.2613 26.1345 48.3685 26.1345C47.5376 26.1345 47.3508 24.1588 47.3521 23.5748C47.354 22.9737 47.4607 21.1184 48.4271 21.1184ZM48.1659 28.6517C44.6725 30.8985 38.5995 28.6365 38.2218 24.1056C38.079 22.3979 38.7534 20.6459 40.2514 19.296C44.3745 16.013 48.0732 18.947 48.9258 18.5392L49.0133 18.5112L49.0428 18.4555L49.1014 18.3992L49.131 18.3434L49.16 18.2876L49.1889 18.2034V18.1198L49.2185 18.0355V17.9235L49.2475 17.8113V17.6991V17.195L49.2185 16.5502V10.6093C49.2185 9.40198 49.2777 8.5931 48.1343 7.86276C49.3514 4.36753 57.5699 4.23958 57.5699 9.09604V20.7155C57.5699 21.8735 57.383 24.4242 58.0152 25.4586C59.0968 27.2278 58.304 29.2028 55.9975 29.5252C53.437 29.8824 50.4962 27.1536 48.1659 28.6517Z" fill="black"/>
<path fill-rule="evenodd" clip-rule="evenodd" d="M67.5032 21.1059C68.7105 21.1059 68.917 22.3601 68.9394 23.2653V29.5558L76.3823 29.4987V21.1059C75.7672 16.6117 66.8086 17.7209 67.5032 21.1059Z" fill="black"/>
<path fill-rule="evenodd" clip-rule="evenodd" d="M99.9707 20.3031C105.601 15.5556 106.447 20.0484 110.052 20.0484C111.183 20.0484 112.237 18.2781 115.382 18.1419C117.209 18.0627 119.663 19.3973 119.839 21.7409V29.4719H111.81V24.5787C111.81 23.1535 111.793 22.5606 110.52 22.3136C109.329 22.4067 109.231 23.6216 109.231 24.5565V29.5277H100.82V22.6353C100.82 21.7973 100.607 20.9156 99.9707 20.3031Z" fill="black"/>
<path fill-rule="evenodd" clip-rule="evenodd" d="M78.3184 20.3031C83.9487 15.5556 84.7948 20.0484 88.3993 20.0484C89.5309 20.0484 90.5849 18.2781 93.7296 18.1419C95.5565 18.0627 98.0112 19.3973 98.1868 21.7409V29.4719H90.1572V24.5787C90.1572 23.1535 90.1408 22.5606 88.8677 22.3136C87.6763 22.4067 87.5783 23.6216 87.5783 24.5565V29.5277H79.1684V22.6353C79.1677 21.7973 78.9546 20.9156 78.3184 20.3031Z" fill="black"/>
<path d="M124.122 13.8725C123.74 13.5342 123.214 13.3081 122.656 13.3081C122.1 13.3081 121.573 13.5342 121.191 13.8725C120.84 14.2392 120.605 14.7472 120.605 15.2831C120.605 15.8196 120.84 16.327 121.191 16.6944C121.572 17.0327 122.1 17.2588 122.656 17.2588C123.214 17.2588 123.74 17.0333 124.122 16.6944C124.473 16.327 124.708 15.8196 124.708 15.2831C124.708 14.7472 124.473 14.2392 124.122 13.8725ZM122.656 13.0547C123.301 13.0547 123.887 13.2802 124.298 13.7033C124.737 14.0986 125.001 14.663 125.001 15.2831C125.001 15.9039 124.737 16.4683 124.298 16.8635C123.887 17.2866 123.301 17.5406 122.656 17.5406C122.012 17.5406 121.426 17.2866 121.015 16.8635C120.576 16.4683 120.342 15.9039 120.342 15.2831C120.342 14.663 120.576 14.0986 121.015 13.7033C121.426 13.2802 122.012 13.0547 122.656 13.0547Z" fill="black"/>
<path fill-rule="evenodd" clip-rule="evenodd" d="M122.196 14.4463V15.1507H122.87C122.894 15.1526 122.921 15.1539 122.95 15.1526C122.979 15.1513 123.009 15.1482 123.04 15.1424C123.081 15.1361 123.121 15.1266 123.161 15.1132C123.2 15.0994 123.233 15.0791 123.26 15.0538C123.295 15.0201 123.323 14.9815 123.342 14.9384C123.362 14.8947 123.372 14.8491 123.372 14.8016C123.372 14.7333 123.356 14.6731 123.322 14.6211C123.289 14.5698 123.248 14.5318 123.201 14.507C123.156 14.483 123.108 14.4672 123.058 14.4583C123.009 14.4508 122.955 14.4463 122.897 14.4463H122.196ZM121.902 16.3484V14.2107H122.885C122.946 14.2126 123.007 14.2151 123.066 14.2183C123.125 14.2214 123.183 14.2296 123.241 14.2436C123.256 14.248 123.27 14.2512 123.285 14.2557C123.299 14.2595 123.314 14.2646 123.328 14.2708C123.442 14.3127 123.528 14.3836 123.587 14.4837C123.646 14.5838 123.675 14.6901 123.675 14.8016C123.675 14.972 123.619 15.1051 123.506 15.1995C123.394 15.2939 123.242 15.3533 123.052 15.3768V15.38C123.108 15.4078 123.17 15.447 123.238 15.499C123.306 15.551 123.384 15.6415 123.47 15.7701L123.858 16.3484H123.489L123.198 15.9064C123.103 15.7658 123.024 15.6593 122.96 15.5902C122.898 15.52 122.839 15.4725 122.783 15.4464C122.745 15.4288 122.707 15.4173 122.668 15.4141C122.629 15.4097 122.584 15.4078 122.535 15.4078H122.197V16.3484H121.902Z" fill="black"/>
<path fill-rule="evenodd" clip-rule="evenodd" d="M41.228 34.5452H119.84V36.0419C112.849 36.0419 42.1523 36.023 42.1398 36.0135C41.5695 35.5859 41.3655 35.0741 41.2188 34.5534C41.2181 34.5496 41.2227 34.5452 41.228 34.5452Z" fill="#E3000F"/>
<path fill-rule="evenodd" clip-rule="evenodd" d="M41.228 34.5452H119.84V36.0419C112.849 36.0419 42.1523 36.023 42.1398 36.0135C41.5695 35.5859 41.3655 35.0741 41.2188 34.5534C41.2181 34.5496 41.2227 34.5452 41.228 34.5452Z" fill="#E3000F"/>
</g>
</g>
<defs>
<clipPath id="clip0_549_3294">
<rect width="125" height="47" fill="white"/>
</clipPath>
</defs>
</svg>
