<svg width="141" height="55" viewBox="0 0 141 55" fill="none" xmlns="http://www.w3.org/2000/svg">
<g clip-path="url(#clip0_549_3355)">
<mask id="mask0_549_3355" style="mask-type:luminance" maskUnits="userSpaceOnUse" x="0" y="0" width="141" height="55">
<path d="M141 0H0V55H141V0Z" fill="white"/>
</mask>
<g mask="url(#mask0_549_3355)">
<path d="M134.429 52.6928H135.182V53.4436H134.429V52.6928ZM131.83 53.5074C131.563 53.5074 131.335 53.4488 131.146 53.3339C130.958 53.2175 130.815 53.0485 130.716 52.8261C130.617 52.6046 130.568 52.3377 130.568 52.0256V51.2229C130.568 50.9093 130.616 50.641 130.712 50.4193C130.808 50.197 130.948 50.028 131.132 49.9116C131.316 49.7968 131.537 49.7382 131.794 49.7382C132.01 49.7382 132.208 49.7946 132.386 49.9073C132.565 50.0198 132.71 50.177 132.821 50.3808L132.746 51.1242C132.746 50.9708 132.719 50.8382 132.663 50.7278C132.606 50.6188 132.524 50.535 132.418 50.4772C132.312 50.4193 132.183 50.3913 132.03 50.3913C131.793 50.3913 131.61 50.4653 131.48 50.6129C131.35 50.7603 131.285 50.9679 131.285 51.2332V52.0264C131.285 52.291 131.35 52.4948 131.48 52.6402C131.61 52.7839 131.793 52.8558 132.03 52.8558C132.182 52.8558 132.312 52.8261 132.418 52.7655C132.524 52.7054 132.606 52.6194 132.663 52.5082C132.719 52.3955 132.746 52.2614 132.746 52.1043L132.795 52.8722C132.723 53.053 132.605 53.2043 132.439 53.325C132.274 53.4466 132.071 53.5074 131.83 53.5074ZM132.746 48.3409H133.464V53.4443H132.746V48.3409ZM128.045 49.8011H129.69V50.4468H128.045V49.8011ZM129.275 53.4622C128.98 53.4622 128.765 53.3806 128.627 53.2175C128.49 53.0544 128.422 52.8151 128.422 52.4963V48.7413H129.14V52.5037C129.14 52.5927 129.157 52.6608 129.191 52.7084C129.227 52.7565 129.279 52.7802 129.345 52.7802H129.69V53.4622H129.275ZM124.631 52.7632H127.555V53.4436H124.631V52.7632ZM124.272 48.3409H124.989V53.4443H124.272V48.3409ZM119.828 53.497C119.613 53.497 119.411 53.4756 119.223 53.4332C119.033 53.391 118.857 53.328 118.694 53.2443C118.53 53.1604 118.378 53.0544 118.24 52.9278L118.665 52.4059C118.862 52.5556 119.057 52.6683 119.253 52.7424C119.447 52.8181 119.639 52.8551 119.828 52.8551C120.111 52.8551 120.325 52.8107 120.467 52.7231C120.608 52.6357 120.679 52.5037 120.679 52.3281C120.679 52.2118 120.64 52.1235 120.562 52.0656C120.486 52.0071 120.39 51.9671 120.274 51.947C120.159 51.9278 119.998 51.91 119.79 51.8929C119.771 51.8929 119.751 51.8929 119.73 51.8914C119.708 51.8901 119.689 51.8878 119.67 51.8856C119.66 51.8856 119.652 51.8856 119.642 51.8841C119.633 51.8826 119.623 51.8819 119.613 51.8819C119.377 51.8641 119.176 51.8293 119.012 51.7789C118.849 51.7283 118.712 51.6335 118.603 51.4965C118.494 51.3585 118.44 51.1614 118.44 50.9033C118.44 50.6454 118.493 50.4312 118.598 50.2615C118.703 50.0902 118.859 49.9621 119.069 49.8768C119.277 49.7923 119.538 49.7485 119.853 49.7485C120.042 49.7485 120.223 49.7663 120.396 49.8011C120.568 49.836 120.732 49.8887 120.89 49.9569C121.047 50.0257 121.198 50.114 121.343 50.2193L120.91 50.7418C120.728 50.624 120.548 50.5372 120.372 50.4787C120.194 50.4216 120.021 50.3913 119.854 50.3913C119.609 50.3913 119.426 50.4335 119.305 50.5157C119.184 50.5988 119.122 50.7233 119.122 50.8894C119.122 50.9872 119.157 51.0621 119.227 51.111C119.295 51.1599 119.383 51.1925 119.488 51.2096C119.593 51.2252 119.743 51.2391 119.938 51.2518C119.952 51.254 119.967 51.2555 119.981 51.2555C119.996 51.2555 120.012 51.257 120.029 51.2592C120.036 51.2592 120.043 51.2592 120.05 51.2592C120.056 51.2592 120.064 51.2607 120.071 51.2629C120.326 51.2785 120.543 51.3133 120.723 51.3645C120.902 51.4163 121.052 51.5179 121.173 51.6699C121.296 51.8219 121.356 52.0413 121.356 52.3289C121.356 52.5913 121.301 52.8077 121.187 52.9804C121.075 53.1517 120.906 53.2813 120.679 53.3688C120.455 53.454 120.171 53.497 119.828 53.497ZM116.174 53.497C115.837 53.497 115.549 53.4332 115.31 53.308C115.071 53.1812 114.889 52.9951 114.764 52.7513C114.638 52.5067 114.575 52.2125 114.575 51.8663V51.4556C114.575 51.0954 114.635 50.7871 114.756 50.532C114.876 50.2771 115.052 50.0828 115.282 49.9502C115.511 49.8175 115.788 49.75 116.111 49.75C116.415 49.75 116.675 49.8264 116.891 49.9776C117.106 50.1296 117.27 50.3498 117.384 50.6373C117.498 50.9249 117.555 51.2711 117.555 51.6735V51.9122H115.096V51.3364H116.873C116.852 51.0391 116.776 50.8078 116.643 50.644C116.511 50.4787 116.334 50.3957 116.111 50.3957C115.84 50.3957 115.628 50.4839 115.48 50.6625C115.331 50.8397 115.256 51.0909 115.256 51.4171V51.8797C115.256 52.1813 115.337 52.4141 115.495 52.5742C115.655 52.7357 115.881 52.8174 116.174 52.8174C116.319 52.8174 116.464 52.7869 116.606 52.729C116.749 52.6712 116.877 52.589 116.99 52.483L117.46 52.9537C117.28 53.1264 117.077 53.2606 116.852 53.3547C116.628 53.4488 116.401 53.497 116.174 53.497ZM112.568 53.497C112.237 53.497 111.952 53.4347 111.717 53.3118C111.482 53.1872 111.303 53.007 111.178 52.7698C111.055 52.5342 110.992 52.2488 110.992 51.9145V51.3148C110.992 50.9842 111.055 50.7025 111.178 50.469C111.303 50.2341 111.483 50.0555 111.717 49.9339C111.953 49.81 112.237 49.7492 112.568 49.7492C112.759 49.7492 112.937 49.7723 113.104 49.8175C113.273 49.8627 113.423 49.9287 113.556 50.0162C113.689 50.1029 113.801 50.2081 113.889 50.3312L113.372 50.7951C113.269 50.6774 113.15 50.5876 113.01 50.5246C112.872 50.4623 112.728 50.4298 112.578 50.4298C112.302 50.4298 112.088 50.5076 111.936 50.6625C111.783 50.8167 111.708 51.0339 111.708 51.3155V51.9152C111.708 52.2028 111.783 52.4245 111.935 52.5808C112.085 52.738 112.301 52.8166 112.579 52.8166C112.731 52.8166 112.876 52.7817 113.014 52.7149C113.154 52.6468 113.273 52.5511 113.373 52.426L113.89 52.9241C113.799 53.0463 113.686 53.1494 113.553 53.2353C113.419 53.3205 113.269 53.385 113.101 53.4296C112.934 53.4741 112.757 53.497 112.568 53.497ZM109.291 49.8011H110.008V53.4443H109.291V49.8011ZM109.291 48.3409H110.008V49.057H109.291V48.3409ZM107.84 49.8011H108.589L107.218 53.4443H106.677L105.307 49.8011H106.056L106.948 52.4022L107.84 49.8011ZM104.628 50.6648C104.564 50.5869 104.484 50.5283 104.388 50.4891C104.293 50.4491 104.182 50.429 104.055 50.429C103.828 50.429 103.652 50.4928 103.526 50.6173C103.401 50.7425 103.337 50.9167 103.337 51.1384L103.264 50.4364C103.377 50.2193 103.522 50.0495 103.7 49.9294C103.878 49.8085 104.075 49.7485 104.29 49.7485C104.457 49.7485 104.607 49.7723 104.741 49.8204C104.876 49.8686 104.993 49.9391 105.094 50.0324L104.628 50.6648ZM102.621 49.8011H103.337V53.4443H102.621V49.8011ZM100.256 53.497C99.9193 53.497 99.6306 53.4332 99.3917 53.308C99.1527 53.1812 98.9709 52.9951 98.8454 52.7513C98.72 52.5067 98.657 52.2125 98.657 51.8663V51.4556C98.657 51.0954 98.7171 50.7871 98.8381 50.532C98.9582 50.2771 99.1335 50.0828 99.3635 49.9502C99.5927 49.8175 99.8696 49.75 100.192 49.75C100.497 49.75 100.757 49.8264 100.973 49.9776C101.188 50.1296 101.352 50.3498 101.466 50.6373C101.58 50.9249 101.637 51.2711 101.637 51.6735V51.9122H99.178V51.3364H100.955C100.934 51.0391 100.857 50.8078 100.725 50.644C100.593 50.4787 100.416 50.3957 100.192 50.3957C99.9216 50.3957 99.7108 50.4839 99.5616 50.6625C99.4131 50.8397 99.3389 51.0909 99.3389 51.4171V51.8797C99.3389 52.1813 99.4191 52.4141 99.5779 52.5742C99.7374 52.7357 99.9639 52.8174 100.256 52.8174C100.401 52.8174 100.546 52.7869 100.688 52.729C100.831 52.6712 100.959 52.589 101.072 52.483L101.541 52.9537C101.362 53.1264 101.159 53.2606 100.934 53.3547C100.71 53.4488 100.483 53.497 100.256 53.497ZM95.9386 53.497C95.6931 53.497 95.4592 53.4733 95.2395 53.4267C95.0192 53.3798 94.8136 53.3103 94.6222 53.2168C94.4314 53.1219 94.2525 53.0063 94.0871 52.8663L94.533 52.3185C94.7275 52.4868 94.9419 52.6134 95.1758 52.6972C95.4096 52.7809 95.6641 52.8233 95.9386 52.8233C96.3082 52.8233 96.5947 52.7551 96.7987 52.6186C97.002 52.4823 97.1045 52.288 97.1045 52.0375V52.0338C97.1045 51.8566 97.0593 51.7151 96.9665 51.6114C96.8729 51.5067 96.7542 51.4305 96.6081 51.3801C96.4618 51.3297 96.2719 51.283 96.041 51.2406C96.0337 51.2384 96.0254 51.2369 96.0181 51.2369C96.0091 51.2369 96.0011 51.2354 95.9943 51.2332L95.9423 51.2237C95.5995 51.1651 95.3212 51.0984 95.1075 51.0249C94.893 50.9509 94.709 50.8167 94.5568 50.6211C94.4047 50.426 94.329 50.1481 94.329 49.7871V49.7834C94.329 49.4684 94.3995 49.1985 94.5413 48.9748C94.683 48.7524 94.8901 48.5804 95.1617 48.4648C95.434 48.3476 95.7597 48.2891 96.1428 48.2891C96.3254 48.2891 96.5048 48.3091 96.6815 48.3491C96.8588 48.3884 97.0326 48.4484 97.2054 48.5263C97.3768 48.604 97.546 48.7033 97.713 48.8235L97.3049 49.3913C97.1104 49.249 96.9174 49.1422 96.7231 49.0704C96.5301 48.9999 96.3364 48.9636 96.1428 48.9636C95.794 48.9636 95.5217 49.0332 95.3287 49.1719C95.1357 49.3112 95.0399 49.5084 95.0399 49.7641V49.7678C95.0399 49.9428 95.089 50.0806 95.1884 50.1808C95.2878 50.2816 95.4125 50.3556 95.5616 50.4039C95.7101 50.4513 95.9165 50.5017 96.182 50.5536C96.1917 50.5558 96.1999 50.5573 96.208 50.558C96.2162 50.5595 96.2251 50.5618 96.2347 50.564C96.2466 50.5662 96.2585 50.5684 96.2726 50.5705C96.2867 50.572 96.2994 50.5742 96.3113 50.5765C96.6206 50.6402 96.8782 50.7159 97.0859 50.8018C97.293 50.8879 97.4673 51.0279 97.6061 51.2207C97.7456 51.4134 97.8147 51.6772 97.8147 52.0123V52.0182C97.8147 52.3296 97.7412 52.5957 97.5935 52.8174C97.4451 53.039 97.2314 53.2065 96.9516 53.3228C96.6711 53.4391 96.3342 53.497 95.9386 53.497ZM89.6775 53.5074C89.4103 53.5074 89.1825 53.4488 88.9941 53.3339C88.8055 53.2175 88.6623 53.0485 88.5636 52.8261C88.4649 52.6046 88.416 52.3377 88.416 52.0256V51.2229C88.416 50.9093 88.4634 50.641 88.5599 50.4193C88.6557 50.197 88.7958 50.028 88.98 49.9116C89.1633 49.7968 89.3843 49.7382 89.642 49.7382C89.8579 49.7382 90.0553 49.7946 90.2342 49.9073C90.4129 50.0198 90.5576 50.177 90.6682 50.3808L90.594 51.1242C90.594 50.9708 90.5665 50.8382 90.5101 50.7278C90.4537 50.6188 90.3721 50.535 90.2653 50.4772C90.1598 50.4193 90.03 50.3913 89.8778 50.3913C89.6404 50.3913 89.4578 50.4653 89.3272 50.6129C89.1974 50.7603 89.1327 50.9679 89.1327 51.2332V52.0264C89.1327 52.291 89.1974 52.4948 89.3272 52.6402C89.4578 52.7839 89.6404 52.8558 89.8778 52.8558C90.03 52.8558 90.1591 52.8261 90.2653 52.7655C90.3721 52.7054 90.4537 52.6194 90.5101 52.5082C90.5665 52.3955 90.594 52.2614 90.594 52.1043L90.6431 52.8722C90.5709 53.053 90.4523 53.2043 90.2867 53.325C90.1221 53.4466 89.9187 53.5074 89.6775 53.5074ZM89.7436 54.9246C89.4704 54.9246 89.2241 54.8742 89.0082 54.7727C88.7914 54.6711 88.6229 54.5274 88.5035 54.3428L88.9881 53.904C89.0824 54.0323 89.1944 54.1316 89.3243 54.2026C89.4548 54.2723 89.5907 54.308 89.7332 54.308C90.0077 54.308 90.2199 54.2323 90.3699 54.0819C90.5198 53.9306 90.594 53.7171 90.594 53.4406V49.8011H91.3116V53.3354C91.3116 53.6697 91.2508 53.9573 91.1269 54.1953C91.0044 54.4339 90.8262 54.6156 90.5911 54.7394C90.3572 54.8638 90.0752 54.9246 89.7436 54.9246ZM86.7158 51.2362C86.7158 50.9783 86.6489 50.7797 86.5147 50.6395C86.3818 50.4995 86.1941 50.4283 85.9536 50.4283C85.7191 50.4283 85.5389 50.4905 85.4103 50.6151C85.2834 50.738 85.219 50.913 85.219 51.1376L85.1455 50.4357C85.2583 50.2163 85.4045 50.0465 85.5863 49.9264C85.7674 49.8078 85.9677 49.7478 86.1889 49.7478C86.5845 49.7478 86.8901 49.8775 87.1076 50.1354C87.325 50.3942 87.4327 50.7596 87.4327 51.2317V53.4429H86.7165L86.7158 51.2362ZM84.5021 49.8011H85.2182V53.4443H84.5021V49.8011ZM82.6958 49.8011H83.412V53.4443H82.6958V49.8011ZM82.6958 48.3409H83.412V49.057H82.6958V48.3409ZM80.2536 53.497C80.0375 53.497 79.8357 53.4756 79.648 53.4332C79.4587 53.391 79.2821 53.328 79.1188 53.2443C78.9549 53.1604 78.8035 53.0544 78.6654 52.9278L79.0899 52.4059C79.2865 52.5556 79.4817 52.6683 79.6777 52.7424C79.8721 52.8181 80.0642 52.8551 80.2536 52.8551C80.5363 52.8551 80.75 52.8107 80.8917 52.7231C81.0335 52.6357 81.104 52.5037 81.104 52.3281C81.104 52.2118 81.0653 52.1235 80.9875 52.0656C80.911 52.0071 80.8145 51.9671 80.6995 51.947C80.5845 51.9278 80.4242 51.91 80.2149 51.8929C80.1957 51.8929 80.1763 51.8929 80.1549 51.8914C80.1333 51.8901 80.114 51.8878 80.0946 51.8856C80.0851 51.8856 80.0769 51.8856 80.0672 51.8841C80.0576 51.8826 80.0479 51.8819 80.0382 51.8819C79.8024 51.8641 79.6011 51.8293 79.4372 51.7789C79.2739 51.7283 79.1375 51.6335 79.0283 51.4965C78.9192 51.3585 78.865 51.1614 78.865 50.9033C78.865 50.6454 78.9177 50.4312 79.023 50.2615C79.1278 50.0902 79.2843 49.9621 79.4936 49.8768C79.7022 49.7923 79.9633 49.7485 80.2779 49.7485C80.4673 49.7485 80.6484 49.7663 80.8205 49.8011C80.9926 49.836 81.1574 49.8887 81.3147 49.9569C81.472 50.0257 81.6227 50.114 81.7681 50.2193L81.3347 50.7418C81.1521 50.624 80.9727 50.5372 80.796 50.4787C80.6187 50.4216 80.4457 50.3913 80.2779 50.3913C80.0331 50.3913 79.8505 50.4335 79.728 50.5157C79.6072 50.5988 79.5455 50.7233 79.5455 50.8894C79.5455 50.9872 79.5804 51.0621 79.6502 51.111C79.7185 51.1599 79.806 51.1925 79.9113 51.2096C80.0168 51.2252 80.1675 51.2391 80.3611 51.2518C80.3759 51.254 80.39 51.2555 80.4041 51.2555C80.4197 51.2555 80.4354 51.257 80.4524 51.2592C80.459 51.2592 80.4665 51.2592 80.4739 51.2592C80.4799 51.2592 80.4872 51.2607 80.4947 51.2629C80.75 51.2785 80.9674 51.3133 81.147 51.3645C81.3259 51.4163 81.4764 51.5179 81.5982 51.6699C81.7207 51.8219 81.7808 52.0413 81.7808 52.3289C81.7808 52.5913 81.7258 52.8077 81.6123 52.9804C81.4995 53.1517 81.331 53.2813 81.104 53.3688C80.8798 53.454 80.5956 53.497 80.2536 53.497ZM77.1582 49.8011H77.8743V53.4443H77.1582V49.8011ZM77.1582 48.3409H77.8743V49.057H77.1582V48.3409ZM74.529 49.8011H76.1734V50.4468H74.529V49.8011ZM75.7593 53.4622C75.464 53.4622 75.2481 53.3806 75.1107 53.2175C74.9741 53.0544 74.9058 52.8151 74.9058 52.4963V48.7413H75.6227V52.5037C75.6227 52.5927 75.6398 52.6608 75.6747 52.7084C75.7103 52.7565 75.7623 52.7802 75.8291 52.7802H76.1734V53.4622H75.7593ZM73.746 50.6648C73.6822 50.5869 73.602 50.5283 73.5063 50.4891C73.4105 50.4491 73.2999 50.429 73.173 50.429C72.9459 50.429 72.7701 50.4928 72.644 50.6173C72.5193 50.7425 72.4555 50.9167 72.4555 51.1384L72.3819 50.4364C72.4947 50.2193 72.6403 50.0495 72.8176 49.9294C72.9965 49.8085 73.1931 49.7485 73.4076 49.7485C73.5746 49.7485 73.7253 49.7723 73.8595 49.8204C73.9939 49.8686 74.1111 49.9391 74.212 50.0324L73.746 50.6648ZM71.7394 49.8011H72.4555V53.4443H71.7394V49.8011ZM69.3742 53.497C69.0373 53.497 68.7487 53.4332 68.5097 53.308C68.2708 53.1812 68.0889 52.9951 67.9635 52.7513C67.8373 52.5067 67.7751 52.2125 67.7751 51.8663V51.4556C67.7751 51.0954 67.8351 50.7871 67.956 50.532C68.0763 50.2771 68.2514 50.0828 68.4815 49.9502C68.7108 49.8175 68.9877 49.75 69.3105 49.75C69.6147 49.75 69.8752 49.8264 70.0911 49.9776C70.3056 50.1296 70.4704 50.3498 70.5839 50.6373C70.6982 50.9249 70.7546 51.2711 70.7546 51.6735V51.9122H68.296V51.3364H70.0734C70.0518 51.0391 69.9754 50.8078 69.8432 50.644C69.7112 50.4787 69.5337 50.3957 69.3105 50.3957C69.0395 50.3957 68.828 50.4839 68.6797 50.6625C68.5312 50.8397 68.457 51.0909 68.457 51.4171V51.8797C68.457 52.1813 68.5372 52.4141 68.696 52.5742C68.8555 52.7357 69.0818 52.8174 69.375 52.8174C69.5196 52.8174 69.6645 52.7869 69.8069 52.729C69.9494 52.6712 70.0778 52.589 70.1906 52.483L70.6603 52.9537C70.4808 53.1264 70.2781 53.2606 70.0525 53.3547C69.8276 53.4488 69.6013 53.497 69.3742 53.497ZM66.5008 49.8011H67.2495L65.8789 53.4443H65.338L63.9681 49.8011H64.7168L65.6088 52.4022L66.5008 49.8011ZM61.6311 53.5074C61.364 53.5074 61.1362 53.4488 60.9476 53.3339C60.7591 53.2175 60.6159 53.0485 60.5172 52.8261C60.4193 52.6046 60.3695 52.3377 60.3695 52.0256V51.2229C60.3695 50.9093 60.4171 50.641 60.5136 50.4193C60.6092 50.197 60.7494 50.028 60.9335 49.9116C61.1168 49.7968 61.338 49.7382 61.5954 49.7382C61.8115 49.7382 62.0089 49.7946 62.1876 49.9073C62.3665 50.0198 62.5119 50.177 62.6218 50.3808L62.5476 51.1242C62.5476 50.9708 62.5202 50.8382 62.4638 50.7278C62.4066 50.6188 62.3257 50.535 62.2189 50.4772C62.1135 50.4193 61.9836 50.3913 61.8315 50.3913C61.594 50.3913 61.4114 50.4653 61.2808 50.6129C61.151 50.7603 61.0864 50.9679 61.0864 51.2332V52.0264C61.0864 52.291 61.151 52.4948 61.2808 52.6402C61.4114 52.7839 61.594 52.8558 61.8315 52.8558C61.9836 52.8558 62.1127 52.8261 62.2189 52.7655C62.3257 52.7054 62.4074 52.6194 62.4638 52.5082C62.5202 52.3955 62.5476 52.2614 62.5476 52.1043L62.5965 52.8722C62.5246 53.053 62.4059 53.2043 62.2404 53.325C62.0748 53.4466 61.8723 53.5074 61.6311 53.5074ZM62.5476 48.3409H63.2645V53.4443H62.5476V48.3409ZM56.262 51.6439H58.9499V52.3244H56.262V51.6439ZM57.2779 48.3409H57.8886L59.7729 53.4443H58.9996L57.583 49.3275L56.1677 53.4443H55.3945L57.2779 48.3409Z" fill="#F1F0F0"/>
<path fill-rule="evenodd" clip-rule="evenodd" d="M54.6542 54.8878C39.9265 42.2222 34.5892 18.3847 31.8835 0.0234375C30.6665 2.87795 29.4658 5.7332 28.2153 8.5729C25.379 15.0446 22.4958 20.7396 18.4269 26.6822C14.1991 25.6852 9.77322 26.5213 7.35024 29.1964C10.4025 28.0698 13.7145 27.8606 16.9686 28.6131C12.5658 34.0707 7.35173 38.39 1.21378 41.7819C-1.01106 43.4482 0.0546063 46.1908 2.53546 46.4695C4.04194 46.4695 4.96809 45.9165 6.13839 45.0166C11.2366 40.6093 15.851 35.1027 19.5231 29.4359C27.1911 33.1117 30.6441 37.0291 35.6511 43.7299C41.194 51.0748 44.5802 55.6942 54.6542 54.8878Z" fill="white"/>
<path fill-rule="evenodd" clip-rule="evenodd" d="M28.6335 13.1719C28.9525 20.4263 30.1058 27.3963 34.1666 37.6825C31.5819 34.4448 26.5348 29.7808 20.8555 27.5097C23.8685 23.3654 26.8569 17.1819 28.6335 13.1719Z" fill="#E3000F"/>
<path fill-rule="evenodd" clip-rule="evenodd" d="M81.399 6.24219L81.6298 6.2748H81.8614L82.0929 6.30741L82.3245 6.34077L82.5552 6.40674L82.7867 6.47271L82.9857 6.53868L83.2165 6.60465L83.4146 6.70398L83.6127 6.80256L83.8116 6.93525L84.0097 7.03383L84.2086 7.16577L84.3734 7.33107L84.5389 7.46301L84.7045 7.59569L84.8691 7.76025L85.002 7.9248L85.1341 8.12346L85.2661 8.28875L85.3983 8.48666L85.5303 8.68457L85.5964 8.88323L85.6959 9.08114L85.7946 9.27905L85.8605 9.51032L85.9274 9.70823L85.9934 9.9395L86.0261 10.1708L86.0595 10.4013V10.6333L86.0921 10.8638L86.0595 11.0951V11.3264L86.0261 11.5576L85.9934 11.7882L85.9274 12.0194L85.8605 12.2507L85.7946 12.4486L85.6959 12.6473L85.5964 12.8778L85.5303 13.0764L85.3983 13.241L85.2661 13.4389L85.1341 13.6375L85.002 13.8021L84.8691 13.9674L84.7045 14.1327L84.5389 14.2646L84.3734 14.4299L84.2086 14.5619L84.0097 14.6938L83.8116 14.7931L83.6127 14.9251L83.4146 15.0237L83.2165 15.123L82.9857 15.189L82.7867 15.2883L82.5552 15.321L82.3245 15.3876L82.0929 15.4203L81.8614 15.4536L81.6298 15.4863H81.399H81.1341L80.9033 15.4536L80.671 15.4203L80.4402 15.3876L80.2088 15.321L79.9772 15.2883L79.7464 15.189L79.5475 15.123L79.3487 15.0237L79.1513 14.9251L78.9524 14.7931L78.7541 14.6938L78.556 14.5619L78.3906 14.4299L78.2258 14.2646L78.0603 14.1327L77.8949 13.9674L77.7627 13.8021L77.5972 13.6375L77.4651 13.4389L77.3657 13.241L77.2337 13.0764L77.135 12.8778L77.0355 12.6473L76.9694 12.4486L76.87 12.2507L76.8374 12.0194L76.7706 11.7882L76.7378 11.5576L76.7052 11.3264L76.6719 11.0951V10.8638V10.6333L76.7052 10.4013L76.7378 10.1708L76.7706 9.9395L76.8374 9.70823L76.87 9.51032L76.9694 9.27905L77.0355 9.08114L77.135 8.88323L77.2337 8.68457L77.3657 8.48666L77.4651 8.28875L77.5972 8.12346L77.7627 7.9248L77.8949 7.76025L78.0603 7.59569L78.2258 7.46301L78.3906 7.33107L78.556 7.16577L78.7541 7.03383L78.9524 6.93525L79.1513 6.80256L79.3487 6.70398L79.5475 6.60465L79.7464 6.53868L79.9772 6.47271L80.2088 6.40674L80.4402 6.34077L80.671 6.30741L80.9033 6.2748H81.1341L81.399 6.24219Z" fill="#D40E14"/>
<path fill-rule="evenodd" clip-rule="evenodd" d="M54.6263 24.7136C55.4612 24.7136 55.6675 27.0396 55.6741 27.5674C55.6824 28.1894 55.5674 30.5835 54.5602 30.5835C53.623 30.5835 53.4123 28.2716 53.4137 27.5881C53.4159 26.8847 53.5362 24.7136 54.6263 24.7136ZM54.3317 33.5291C50.3912 36.1584 43.5408 33.5114 43.1149 28.2093C42.9537 26.2108 43.7144 24.1607 45.4042 22.581C50.055 18.7392 54.2271 22.1727 55.1889 21.6953L55.2876 21.6626L55.3209 21.5974L55.387 21.5315L55.4204 21.4663L55.4531 21.401L55.4857 21.3025V21.2047L55.5191 21.1059V20.9748L55.5518 20.8436V20.7123V20.1223L55.5191 19.3678V12.4157C55.5191 11.0029 55.5859 10.0563 54.2962 9.20167C55.669 5.11152 64.9395 4.96178 64.9395 10.6449V24.2421C64.9395 25.5972 64.7287 28.5821 65.4418 29.7925C66.6619 31.8629 65.7675 34.1741 63.1658 34.5514C60.2775 34.9694 56.9603 31.7761 54.3317 33.5291Z" fill="white"/>
<path fill-rule="evenodd" clip-rule="evenodd" d="M76.1409 24.7012C77.5028 24.7012 77.7357 26.1688 77.761 27.228V34.5893L86.1565 34.5225V24.7012C85.4627 19.442 75.3574 20.74 76.1409 24.7012Z" fill="white"/>
<path fill-rule="evenodd" clip-rule="evenodd" d="M112.766 23.7598C119.116 18.2042 120.071 23.4618 124.137 23.4618C125.413 23.4618 126.602 21.39 130.149 21.2307C132.21 21.1381 134.979 22.6998 135.177 25.4424V34.4893H126.12V28.7632C126.12 27.0953 126.101 26.4016 124.665 26.1125C123.321 26.2214 123.211 27.6431 123.211 28.7372V34.5545H113.724V26.489C113.724 25.5084 113.483 24.4766 112.766 23.7598Z" fill="white"/>
<path fill-rule="evenodd" clip-rule="evenodd" d="M88.3438 23.7598C94.6948 18.2042 95.6492 23.4618 99.7151 23.4618C100.991 23.4618 102.18 21.39 105.728 21.2307C107.788 21.1381 110.557 22.6998 110.755 25.4424V34.4893H101.698V28.7632C101.698 27.0953 101.679 26.4016 100.243 26.1125C98.8995 26.2214 98.7889 27.6431 98.7889 28.7372V34.5545H89.3026V26.489C89.3018 25.5084 89.0614 24.4766 88.3438 23.7598Z" fill="white"/>
<path d="M140.01 16.2343C139.58 15.8385 138.985 15.5739 138.357 15.5739C137.729 15.5739 137.135 15.8385 136.704 16.2343C136.308 16.6635 136.043 17.2579 136.043 17.8851C136.043 18.5128 136.308 19.1067 136.704 19.5366C137.134 19.9324 137.729 20.197 138.357 20.197C138.985 20.197 139.58 19.9332 140.01 19.5366C140.407 19.1067 140.672 18.5128 140.672 17.8851C140.672 17.2579 140.407 16.6635 140.01 16.2343ZM138.357 15.2773C139.084 15.2773 139.745 15.5412 140.208 16.0363C140.704 16.4989 141.002 17.1594 141.002 17.8851C141.002 18.6115 140.704 19.272 140.208 19.7344C139.745 20.2296 139.084 20.5269 138.357 20.5269C137.63 20.5269 136.969 20.2296 136.506 19.7344C136.01 19.272 135.746 18.6115 135.746 17.8851C135.746 17.1594 136.01 16.4989 136.506 16.0363C136.969 15.5412 137.63 15.2773 138.357 15.2773Z" fill="white"/>
<path fill-rule="evenodd" clip-rule="evenodd" d="M137.84 16.9086V17.7328H138.599C138.626 17.735 138.657 17.7365 138.689 17.735C138.722 17.7336 138.756 17.7298 138.791 17.7231C138.837 17.7157 138.883 17.7046 138.928 17.689C138.971 17.6728 139.009 17.649 139.04 17.6194C139.079 17.58 139.11 17.5348 139.132 17.4844C139.154 17.4333 139.166 17.3799 139.166 17.3243C139.166 17.2444 139.147 17.1739 139.109 17.1131C139.072 17.053 139.026 17.0086 138.973 16.9796C138.922 16.9515 138.867 16.9329 138.812 16.9225C138.756 16.9138 138.695 16.9086 138.63 16.9086H137.84ZM137.508 19.1344V16.6328H138.616C138.685 16.635 138.754 16.638 138.821 16.6417C138.887 16.6453 138.953 16.655 139.018 16.6713C139.034 16.6765 139.051 16.6802 139.067 16.6854C139.083 16.6899 139.1 16.6958 139.116 16.7031C139.244 16.7522 139.342 16.8351 139.408 16.9523C139.474 17.0694 139.508 17.1938 139.508 17.3243C139.508 17.5237 139.444 17.6794 139.317 17.7899C139.19 17.9003 139.019 17.9699 138.805 17.9974V18.0011C138.867 18.0337 138.938 18.0796 139.014 18.1404C139.092 18.2012 139.179 18.3072 139.276 18.4576L139.713 19.1344H139.298L138.969 18.6171C138.862 18.4526 138.773 18.328 138.701 18.2471C138.631 18.1649 138.564 18.1093 138.501 18.0789C138.459 18.0582 138.416 18.0448 138.372 18.0411C138.327 18.0359 138.277 18.0337 138.221 18.0337H137.84V19.1344H137.508Z" fill="white"/>
<path fill-rule="evenodd" clip-rule="evenodd" d="M46.5065 40.4297H135.181V42.1812C127.295 42.1812 47.5491 42.1591 47.535 42.1479C46.8917 41.6476 46.6616 41.0487 46.4962 40.4394C46.4953 40.4349 46.5006 40.4297 46.5065 40.4297Z" fill="#E3000F"/>
<path fill-rule="evenodd" clip-rule="evenodd" d="M46.5065 40.4297H135.181V42.1812C127.295 42.1812 47.5491 42.1591 47.535 42.1479C46.8917 41.6476 46.6616 41.0487 46.4962 40.4394C46.4953 40.4349 46.5006 40.4297 46.5065 40.4297Z" fill="#E3000F"/>
</g>
</g>
<defs>
<clipPath id="clip0_549_3355">
<rect width="141" height="55" fill="white"/>
</clipPath>
</defs>
</svg>
