<svg width="40" height="40" viewBox="0 0 40 40" fill="none" xmlns="http://www.w3.org/2000/svg">
<rect x="0.5" y="0.5" width="39" height="39" rx="19.5" stroke="white"/>
<path d="M15.898 20.0078C15.894 17.6775 17.7262 15.7844 19.9895 15.7804C22.2532 15.7758 24.0925 17.661 24.0969 19.9918C24.1013 22.3225 22.2691 24.2151 20.005 24.2197C17.7417 24.2241 15.9024 22.3385 15.898 20.0078ZM13.6829 20.0123C13.6897 23.6028 16.5224 26.5069 20.0094 26.4999C23.4968 26.493 26.3196 23.5777 26.3128 19.9873C26.306 16.3981 23.4729 13.4922 19.9851 13.4993C16.4981 13.5062 13.6762 16.4227 13.6829 20.0123ZM25.0736 13.2326C25.0752 14.071 25.7374 14.7499 26.5519 14.7483C27.3667 14.7466 28.0262 14.0653 28.025 13.2269C28.0234 12.3884 27.3612 11.7091 26.5463 11.7108C25.7315 11.7124 25.072 12.3942 25.0736 13.2326ZM15.0477 30.3139C13.8487 30.2602 13.1976 30.0551 12.7637 29.8832C12.189 29.6544 11.779 29.3799 11.3475 28.939C10.9167 28.4964 10.6493 28.0755 10.425 27.4852C10.2565 27.0385 10.0536 26.3691 9.99743 25.1348C9.93646 23.8004 9.92253 23.4001 9.91657 20.0197C9.91018 16.6401 9.92215 16.2397 9.97874 14.9041C10.0301 13.6707 10.2306 12.9996 10.3971 12.5533C10.6195 11.961 10.8853 11.5397 11.3144 11.0955C11.7443 10.6513 12.1532 10.3768 12.727 10.1459C13.1605 9.97151 13.8108 9.76435 15.0094 9.70575C16.3064 9.64255 16.6949 9.62905 19.978 9.62247C23.2617 9.61589 23.6506 9.62781 24.9481 9.68646C26.1462 9.74017 26.7981 9.94446 27.2313 10.1172C27.8063 10.346 28.2163 10.6189 28.6474 11.0614C29.0786 11.504 29.346 11.924 29.5703 12.516C29.7396 12.961 29.9409 13.6313 29.9975 14.8648C30.0592 16.1999 30.0732 16.6003 30.0792 19.9799C30.0855 23.3603 30.0735 23.7607 30.0166 25.0955C29.9644 26.3297 29.7656 27.0004 29.5982 27.4475C29.3758 28.0386 29.1101 28.4607 28.6805 28.9049C28.251 29.3475 27.8421 29.6236 27.268 29.8545C26.8352 30.0284 26.1841 30.236 24.9863 30.2946C23.6893 30.3574 23.3007 30.3718 20.0166 30.3779C16.7336 30.3845 16.3451 30.3718 15.0477 30.3139ZM14.9042 7.42751C13.5956 7.49111 12.7019 7.70683 11.9208 8.0219C11.1124 8.34636 10.427 8.78116 9.74526 9.48588C9.06265 10.191 8.64344 10.8977 8.33065 11.7308C8.02785 12.5369 7.82262 13.4574 7.76483 14.8053C7.70746 16.1557 7.6943 16.5864 7.70069 20.0242C7.70708 23.4616 7.72178 23.8932 7.78433 25.2439C7.84688 26.5906 8.05571 27.5103 8.36173 28.3146C8.67731 29.1469 9.0993 29.8521 9.78427 30.5543C10.4689 31.2566 11.1558 31.6877 11.9655 32.0101C12.7477 32.3214 13.6422 32.5335 14.9513 32.5926C16.263 32.6521 16.6818 32.6652 20.0206 32.6586C23.3609 32.6521 23.7798 32.6369 25.0915 32.5729C26.4001 32.5085 27.293 32.2928 28.0749 31.9785C28.8833 31.6528 29.5687 31.2192 30.2505 30.5141C30.9323 29.8094 31.3515 29.1022 31.6643 28.2687C31.9671 27.4635 32.1731 26.5426 32.23 25.196C32.2875 23.8447 32.3011 23.4132 32.2946 19.9758C32.2882 16.5379 32.2731 16.1072 32.211 14.7573C32.1488 13.4094 31.9392 12.4901 31.6336 11.6853C31.3176 10.8531 30.896 10.1483 30.2115 9.44567C29.5269 8.74382 28.8399 8.31145 28.0302 7.9903C27.2476 7.67854 26.3535 7.46609 25.0445 7.40783C23.7327 7.34794 23.3139 7.33484 19.9739 7.34136C16.6347 7.34794 16.216 7.36268 14.9042 7.42751Z" fill="white"/>
</svg>
