<svg width="41" height="41" viewBox="0 0 41 41" fill="none" xmlns="http://www.w3.org/2000/svg">
<g clip-path="url(#clip0_549_3379)">
<path d="M20.5 0.5C31.5457 0.5 40.5 9.4543 40.5 20.5C40.5 31.5457 31.5457 40.5 20.5 40.5C9.4543 40.5 0.5 31.5457 0.5 20.5C0.5 9.4543 9.4543 0.5 20.5 0.5Z" stroke="white"/>
<path d="M25.5154 12.6172H28.1901L22.3465 19.2963L29.2212 28.3847H23.8382L19.6224 22.8725L14.7983 28.3847H12.1218L18.3721 21.2408L11.7773 12.6172H17.2966L21.1076 17.6555L25.5154 12.6172ZM24.5765 26.7837H26.0588L16.4914 14.1342H14.901L24.5765 26.7837Z" fill="white"/>
</g>
<defs>
<clipPath id="clip0_549_3379">
<rect width="41" height="41" fill="white"/>
</clipPath>
</defs>
</svg>
