<svg width="41" height="41" viewBox="0 0 41 41" fill="none" xmlns="http://www.w3.org/2000/svg">
<g clip-path="url(#clip0_549_3382)">
<path d="M9.25781 0.5H31.7422C36.5768 0.50001 40.5 4.43811 40.5 9.30078V31.6992C40.5 36.5619 36.5768 40.5 31.7422 40.5H9.25781C4.42318 40.5 0.5 36.5619 0.5 31.6992V9.30078C0.5 4.43811 4.42318 0.500011 9.25781 0.5Z" stroke="white"/>
<path fill-rule="evenodd" clip-rule="evenodd" d="M17.4109 16.5668H21.9595V18.8441H22.0255C22.6591 17.7343 24.208 16.5668 26.5178 16.5668C31.3209 16.5668 32.2089 19.4862 32.2089 23.284V31.3135H27.4656L27.4649 24.1623C27.4649 22.5272 27.4305 20.4229 24.9984 20.4229C22.529 20.4229 22.15 22.2023 22.15 24.0435V31.3135H17.4109V16.5668ZM14.7229 12.0967C14.7229 13.4262 13.6176 14.5058 12.2563 14.5058C10.8944 14.5058 9.78906 13.4262 9.78906 12.0967C9.78906 10.7664 10.8944 9.6875 12.2563 9.6875C13.6176 9.6875 14.7229 10.7664 14.7229 12.0967ZM9.78906 16.5668H14.7229V31.3135H9.78906V16.5668Z" fill="white"/>
</g>
<rect x="0.5" y="0.5" width="40" height="40" rx="20" stroke="white"/>
<defs>
<clipPath id="clip0_549_3382">
<rect width="41" height="41" rx="20.5" fill="white"/>
</clipPath>
</defs>
</svg>
