<svg width="41" height="41" viewBox="0 0 41 41" fill="none" xmlns="http://www.w3.org/2000/svg">
<path d="M20.1689 0.5C31.0318 0.5 39.8378 9.3065 39.8379 20.1699C39.8379 31.0334 31.0319 39.8398 20.1689 39.8398C9.30609 39.8398 0.5 31.0333 0.5 20.1699C0.500042 9.30655 9.30612 0.500085 20.1689 0.5Z" stroke="white"/>
<path d="M27.8065 26.1439L28.9236 20.0373H22.4205V17.878C22.4205 14.6508 23.6823 13.4094 26.9468 13.4094C27.9606 13.4094 28.7765 13.4345 29.2467 13.4839V7.94821C28.3565 7.70008 26.1801 7.45117 24.9183 7.45117C18.2657 7.45117 15.1992 10.6046 15.1992 17.4061V20.0373H11.0938V26.1439H15.1992V39.4328C16.7395 39.816 18.3502 40.0209 20.0087 40.0209C20.8254 40.0209 21.6296 39.9707 22.4205 39.8749V26.1439H27.8065Z" fill="white"/>
</svg>
